<?xml version="1.0" encoding="iso-8859-1"?>
<!-- Generator: Adobe Illustrator 19.0.0, SVG Export Plug-In . SVG Version: 6.00 Build 0)  -->
<svg xmlns="http://www.w3.org/2000/svg" xmlns:xlink="http://www.w3.org/1999/xlink" version="1.1" id="Layer_1" x="0px" y="0px" viewBox="0 0 511.998 511.998" style="enable-background:new 0 0 511.998 511.998;" xml:space="preserve" width="512px" height="512px">
<g>
	<g>
		<path d="M405.96,171.365h-42.273v-64.747h-0.004V95.417c-0.125-39.076-32.016-70.867-71.092-70.867    c-9.18,0-18.159,1.748-26.534,5.121C250.007,11.098,226.341,0,201.462,0c-24.879,0-48.545,11.098-64.594,29.67    c-8.376-3.373-17.355-5.121-26.534-5.121c-39.076,0-70.967,31.791-71.092,70.915v11.153h-0.005v405.382h324.45V429.18h42.273    c36.834,0,66.801-29.967,66.801-66.801V238.166C472.761,201.332,442.794,171.365,405.96,171.365z M69.658,95.513    c0.071-22.358,18.317-40.547,40.675-40.547c8.102,0,15.923,2.375,22.62,6.866l13.273,8.904l8.235-13.699    c10.019-16.669,27.589-26.62,47.001-26.62c19.411,0,36.981,9.951,47.002,26.621l8.235,13.699l13.273-8.904    c6.696-4.493,14.518-6.866,22.62-6.866c22.357,0,40.603,18.188,40.675,40.498v11.153H137.71v110.869    c0,5.544-4.511,10.055-10.055,10.055c-5.544,0-10.055-4.511-10.055-10.055v-110.87H69.658V95.513z M333.27,171.363v76.043v105.731    v76.043v52.403H69.654V137.034h17.529v80.451c0,16.946,10.474,31.484,25.283,37.503l0.279,169.253l30.417-0.051l-0.279-169.219    c14.789-6.03,25.243-20.557,25.243-37.488v-80.451H333.27V171.363z M363.687,247.408h33.031v105.731h-33.031V247.408z     M442.344,362.381c0,20.062-16.322,36.384-36.384,36.384h-42.273v-15.209h42.273c11.676,0,21.175-9.499,21.175-21.175V238.166    c0-11.677-9.499-21.176-21.175-21.176h-42.273v-15.209h42.273c20.062,0,36.384,16.322,36.384,36.384V362.381z" fill="#FFFFFF"/>
	</g>
</g>
<g>
	<g>
		<rect x="186.253" y="194.396" width="30.417" height="229.822" fill="#FFFFFF"/>
	</g>
</g>
<g>
	<g>
		<rect x="259.762" y="194.396" width="30.417" height="229.822" fill="#FFFFFF"/>
	</g>
</g>
<g>
</g>
<g>
</g>
<g>
</g>
<g>
</g>
<g>
</g>
<g>
</g>
<g>
</g>
<g>
</g>
<g>
</g>
<g>
</g>
<g>
</g>
<g>
</g>
<g>
</g>
<g>
</g>
<g>
</g>
</svg>
