<?xml version="1.0" encoding="UTF-8"?>
<svg width="63px" height="37px" viewBox="0 0 63 37" version="1.1" xmlns="http://www.w3.org/2000/svg" xmlns:xlink="http://www.w3.org/1999/xlink">
    <!-- Generator: Sketch 43.2 (39069) - http://www.bohemiancoding.com/sketch -->
    <title>Fill 1</title>
    <desc>Created with Sketch.</desc>
    <defs></defs>
    <g id="Page-1" stroke="none" stroke-width="1" fill="none" fill-rule="evenodd">
        <g id="Desktop-HD-Copy-16" transform="translate(-498.000000, -34.000000)" fill="#909090">
            <path d="M558.312,49.563 C556.896,49.563 555.749,50.71 555.749,52.126 C555.749,53.541 556.896,54.688 558.312,54.688 C559.727,54.688 560.875,53.541 560.875,52.126 C560.875,50.71 559.727,49.563 558.312,49.563 L558.312,49.563 Z M500.563,54.688 C501.979,54.688 503.125,53.541 503.125,52.126 C503.125,50.71 501.979,49.563 500.563,49.563 C499.148,49.563 498,50.71 498,52.126 C498,53.541 499.148,54.688 500.563,54.688 L500.563,54.688 Z M542.229,70.25 C543.644,70.25 544.791,69.103 544.791,67.688 C544.791,66.273 543.644,65.126 542.229,65.126 C540.814,65.126 539.666,66.273 539.666,67.688 C539.666,69.103 540.814,70.25 542.229,70.25 L542.229,70.25 Z M529.416,70.25 C530.832,70.25 531.979,69.103 531.979,67.688 C531.979,66.273 530.832,65.126 529.416,65.126 C528.001,65.126 526.854,66.273 526.854,67.688 C526.854,69.103 528.001,70.25 529.416,70.25 L529.416,70.25 Z M516.604,70.25 C518.019,70.25 519.166,69.103 519.166,67.688 C519.166,66.273 518.019,65.126 516.604,65.126 C515.189,65.126 514.041,66.273 514.041,67.688 C514.041,69.103 515.189,70.25 516.604,70.25 L516.604,70.25 Z M542.229,39.125 C543.644,39.125 544.791,37.978 544.791,36.563 C544.791,35.148 543.644,34 542.229,34 C540.814,34 539.666,35.148 539.666,36.563 C539.666,37.978 540.814,39.125 542.229,39.125 L542.229,39.125 Z M529.416,39.125 C530.832,39.125 531.979,37.978 531.979,36.563 C531.979,35.148 530.832,34 529.416,34 C528.001,34 526.854,35.148 526.854,36.563 C526.854,37.978 528.001,39.125 529.416,39.125 L529.416,39.125 Z M516.604,39.125 C518.019,39.125 519.166,37.978 519.166,36.563 C519.166,35.148 518.019,34 516.604,34 C515.189,34 514.041,35.148 514.041,36.563 C514.041,37.978 515.189,39.125 516.604,39.125 L516.604,39.125 Z M550.416,53.131 C550.416,56.983 547.28,60.126 543.411,60.126 L515.423,60.126 C511.556,60.126 508.416,56.994 508.416,53.131 L508.416,51.12 C508.416,47.268 511.553,44.126 515.423,44.126 L543.411,44.126 C547.277,44.126 550.416,47.257 550.416,51.12 L550.416,53.131 Z M543.411,42.126 L515.422,42.126 C510.449,42.126 506.416,46.149 506.416,51.131 L506.416,53.12 C506.416,58.094 510.439,62.126 515.422,62.126 L543.411,62.126 C548.384,62.126 552.416,58.102 552.416,53.12 L552.416,51.131 C552.416,46.157 548.395,42.126 543.411,42.126 L543.411,42.126 Z" id="Fill-1"></path>
        </g>
    </g>
</svg>