<?xml version="1.0" encoding="UTF-8"?>
<svg width="50px" height="35px" viewBox="0 0 50 35" version="1.1" xmlns="http://www.w3.org/2000/svg" xmlns:xlink="http://www.w3.org/1999/xlink">
    <!-- Generator: Sketch 43.2 (39069) - http://www.bohemiancoding.com/sketch -->
    <title>Fill 11 Copy</title>
    <desc>Created with Sketch.</desc>
    <defs></defs>
    <g id="Page-1" stroke="none" stroke-width="1" fill="none" fill-rule="evenodd">
        <g id="Desktop-HD-Copy-16" transform="translate(-618.000000, -32.000000)" fill="#9B9B9B">
            <path d="M638,52 L620.895,52 L634.113,34 L652.083,34 L665.374,52 L648,52 C648,54.762 645.762,57 643,57 C640.239,57 638,54.762 638,52 L638,52 Z M649.71,54 L666,54 L666,65 L620,65 L620,54 L636.29,54 C637.15,56.892 639.829,59 643,59 C646.171,59 648.85,56.892 649.71,54 L649.71,54 Z M633.07,32 L653.043,32 L668,52.072 L668,67 L618,67 L618,52.072 L633.07,32 Z M628.998,47 C628.447,47 628,47.444 628,48 C628,48.553 628.447,49 628.998,49 L657.002,49 C657.553,49 658,48.557 658,48 C658,47.448 657.553,47 657.002,47 L628.998,47 Z M633.002,42 C632.449,42 632,42.444 632,43 C632,43.553 632.439,44 633.002,44 L652.998,44 C653.551,44 654,43.557 654,43 C654,42.448 653.561,42 652.998,42 L633.002,42 Z M637.007,37 C636.451,37 636,37.444 636,38 C636,38.553 636.45,39 637.007,39 L648.993,39 C649.549,39 650,38.557 650,38 C650,37.448 649.55,37 648.993,37 L637.007,37 Z" id="Fill-11-Copy"></path>
        </g>
    </g>
</svg>