<?xml version="1.0" encoding="UTF-8"?>
<svg width="46px" height="50px" viewBox="0 0 46 50" version="1.1" xmlns="http://www.w3.org/2000/svg" xmlns:xlink="http://www.w3.org/1999/xlink">
    <!-- Generator: Sketch 43.2 (39069) - http://www.bohemiancoding.com/sketch -->
    <title>Fill 1 Copy 5</title>
    <desc>Created with Sketch.</desc>
    <defs></defs>
    <g id="Page-1" stroke="none" stroke-width="1" fill="none" fill-rule="evenodd">
        <g id="Desktop-HD-Copy-18" transform="translate(-284.000000, -21.000000)" fill="#fff">
            <path d="M313.227965,28.1437185 C311.154965,25.6687185 309.664965,23.8527185 309.718965,23.8077185 C314.795965,19.5477185 322.364965,20.2097185 326.624965,25.2877185 C330.884965,30.3637185 330.222965,37.9327185 325.145965,42.1927185 C325.145965,42.1927185 322.481965,39.0787185 319.368965,35.4127185 C316.686965,36.7557185 314.028965,36.7557185 314.028965,36.7557185 C314.028965,36.7557185 311.705965,46.8447185 305.050965,47.7987185 L305.050965,66.9037185 C305.050965,66.9037185 306.739965,67.7877185 308.664965,68.2917185 C311.618965,69.0677185 315.137965,69.6407185 314.028965,70.1437185 C312.196965,70.9737185 296.132965,70.9737185 294.028965,70.1437185 C292.826965,69.6687185 296.650965,69.0537185 299.539965,68.2917185 C301.710965,67.7197185 303.040965,66.9037185 303.040965,66.9037185 L303.040965,47.8037185 C296.359965,46.8807185 294.028965,36.7557185 294.028965,36.7557185 C294.028965,36.7557185 289.821965,36.7557185 286.596965,34.0097185 C283.371965,31.2637185 284.061965,28.1437185 284.061965,28.1437185 L313.227965,28.1437185 Z M318.733965,28.1437185 C318.684965,25.5867185 318.576965,22.6657185 318.639965,22.6737185 C320.710965,22.9567185 322.899965,23.9217185 324.773965,25.9107185 C324.839965,25.9807185 323.751965,26.9807185 322.473965,28.1437185 L318.733965,28.1437185 Z M318.225965,28.1437185 C318.055965,25.5637185 317.905965,22.6017185 317.812965,22.5957185 C315.496965,22.4747185 313.406965,23.1807185 312.184965,24.2057185 C312.172965,24.2157185 313.575965,25.8967185 315.460965,28.1437185 L318.225965,28.1437185 Z M320.829965,34.5297185 C323.181965,37.3237185 325.093965,39.5907185 325.093965,39.5907185 C326.293965,38.5827185 327.379965,36.6467185 327.679965,34.3337185 C327.687965,34.2757185 324.935965,33.6357185 322.465965,33.0207185 C322.187965,33.3517185 321.863965,33.6837185 321.486965,34.0097185 C321.271965,34.1957185 321.052965,34.3687185 320.829965,34.5297185 L320.829965,34.5297185 Z M322.931965,32.4077185 C325.297965,32.7857185 327.760965,33.2107185 327.761965,33.1557185 C327.779965,31.1207185 327.163965,28.8837185 325.516965,26.7747185 C325.490965,26.7427185 324.714965,27.3427185 323.693965,28.1437185 L324.062965,28.1437185 C324.062965,28.1437185 324.454965,30.1777185 322.931965,32.4077185 L322.931965,32.4077185 Z M304.077965,33.2107185 C290.536965,33.2067185 286.610965,31.4477185 286.970965,31.9397185 C287.370965,32.4847185 287.939965,33.0837185 288.745965,33.6317185 C291.011965,35.1717185 295.262965,35.2527185 295.262965,35.2527185 C295.262965,35.2527185 297.770965,46.1977185 304.077965,46.1977185 C310.383965,46.1977185 312.718965,35.2527185 312.718965,35.2527185 C312.718965,35.2527185 316.937965,35.3727185 319.417965,33.6317185 C320.245965,33.0517185 320.816965,32.4707185 321.211965,31.9537185 C321.608965,31.4347185 317.617965,33.2157185 304.077965,33.2107185 L304.077965,33.2107185 Z M286.083965,30.1437185 C286.083965,30.1437185 286.083965,30.5487185 286.446965,30.8017185 C286.809965,31.0557185 294.028965,32.2067185 304.084965,32.2067185 C314.028965,32.2067185 321.296965,31.1557185 321.835965,30.8017185 C322.373965,30.4487185 322.084965,30.1437185 322.084965,30.1437185 L286.083965,30.1437185 Z" id="Fill-1-Copy-5"></path>
        </g>
    </g>
</svg>
