<?xml version="1.0" encoding="UTF-8"?>
<svg width="34px" height="47px" viewBox="0 0 34 47" version="1.1" xmlns="http://www.w3.org/2000/svg" xmlns:xlink="http://www.w3.org/1999/xlink">
    <!-- Generator: Sketch 43.2 (39069) - http://www.bohemiancoding.com/sketch -->
    <title>Fill 6</title>
    <desc>Created with Sketch.</desc>
    <defs></defs>
    <g id="Page-1" stroke="none" stroke-width="1" fill="none" fill-rule="evenodd">
        <g id="Desktop-HD-Copy-18" transform="translate(-408.000000, -24.000000)" fill="#9B9B9B">
            <path d="M410.464256,24.037 L409.361256,24.037 C409.361256,24.037 407.492256,38.728 408.134256,39.835 C408.776256,40.94 412.824256,43.909 413.310256,43.972 C413.478256,43.994 413.643256,50.767 413.310256,57.508 C413.098256,61.784 412.138256,66.05 412.604256,68.56 C412.862256,69.95 413.760256,71 414.330256,71 C414.928256,71 415.716256,70.067 415.971256,68.56 C416.415256,65.939 415.514256,61.851 415.306256,57.508 C414.987256,50.855 415.149256,43.997 415.306256,43.977 C415.850256,43.909 419.591256,40.767 420.205256,39.835 C420.819256,38.902 419.092256,24.037 419.092256,24.037 L417.913256,24.037 L418.190256,38 L415.983256,38 L414.891256,24.037 L414.330256,24.037 L413.351256,24.037 L412.384256,38 L410.246256,38 L410.464256,24.037 Z M434.216256,24 C430.940256,24 427.192256,30.258 427.192256,35.78 C427.192256,40.808 429.809256,43.494 433.195256,43.935 C433.363256,43.957 433.528256,50.73 433.195256,57.471 C432.984256,61.747 432.024256,66.013 432.490256,68.523 C432.748256,69.913 433.645256,70.963 434.216256,70.963 C434.813256,70.963 435.602256,70.03 435.857256,68.523 C436.301256,65.902 435.400256,61.815 435.192256,57.471 C434.873256,50.818 435.035256,43.96 435.192256,43.94 C438.578256,43.516 441.101256,40.829 441.101256,35.78 C441.101256,30.258 437.492256,24 434.216256,24 L434.216256,24 Z M434.216256,26 C431.876256,26 429.199256,31.006 429.199256,35.424 C429.199256,39.446 430.697256,41.596 433.116256,41.948 C433.177256,41.957 433.706256,42.059 434.216256,42.059 C434.726256,42.059 435.177256,41.956 435.232256,41.948 C437.651256,41.608 439.134256,39.463 439.134256,35.424 C439.134256,31.006 436.556256,26 434.216256,26 L434.216256,26 Z" id="Fill-6"></path>
        </g>
    </g>
</svg>