<?xml version="1.0" encoding="utf-8"?>
<!-- Generator: Adobe Illustrator 19.2.1, SVG Export Plug-In . SVG Version: 6.00 Build 0)  -->
<svg version="1.1" id="Capa_1" xmlns="http://www.w3.org/2000/svg" xmlns:xlink="http://www.w3.org/1999/xlink" x="0px" y="0px"
	 viewBox="0 0 24 24" style="enable-background:new 0 0 24 24;" xml:space="preserve">
<style type="text/css">
	.st0{fill:#343845;}
</style>
<g>
	<g>
		<path class="st0" d="M15.6,20.6h-3.4c-0.1,0-0.2,0-0.3,0.1c-0.1,0.1-0.1,0.2-0.1,0.3v2.6c0,0.1,0,0.2,0.1,0.3
			C12,24,12.1,24,12.2,24h3.4c0.1,0,0.2,0,0.3-0.1c0.1-0.1,0.1-0.2,0.1-0.3V21c0-0.1,0-0.2-0.1-0.3C15.9,20.6,15.8,20.6,15.6,20.6z"
			/>
		<path class="st0" d="M9.2,18.9H6.6V0.4c0-0.1,0-0.2-0.1-0.3C6.4,0,6.3,0,6.2,0H3.6C3.5,0,3.4,0,3.3,0.1C3.3,0.2,3.2,0.3,3.2,0.4
			v18.4H0.6c-0.2,0-0.3,0.1-0.4,0.3c-0.1,0.2,0,0.3,0.1,0.5l4.3,4.3C4.7,24,4.8,24,4.9,24c0.1,0,0.2,0,0.3-0.1l4.3-4.3
			c0.1-0.1,0.1-0.2,0.1-0.3c0-0.1,0-0.2-0.1-0.3C9.4,18.9,9.3,18.9,9.2,18.9z"/>
		<path class="st0" d="M18.2,13.7h-6c-0.1,0-0.2,0-0.3,0.1c-0.1,0.1-0.1,0.2-0.1,0.3v2.6c0,0.1,0,0.2,0.1,0.3
			c0.1,0.1,0.2,0.1,0.3,0.1h6c0.1,0,0.2,0,0.3-0.1c0.1-0.1,0.1-0.2,0.1-0.3v-2.6c0-0.1,0-0.2-0.1-0.3C18.4,13.8,18.3,13.7,18.2,13.7
			z"/>
		<path class="st0" d="M23.7,0.1C23.6,0,23.5,0,23.4,0H12.2c-0.1,0-0.2,0-0.3,0.1c-0.1,0.1-0.1,0.2-0.1,0.3V3c0,0.1,0,0.2,0.1,0.3
			c0.1,0.1,0.2,0.1,0.3,0.1h11.1c0.1,0,0.2,0,0.3-0.1c0.1-0.1,0.1-0.2,0.1-0.3V0.4C23.8,0.3,23.8,0.2,23.7,0.1z"/>
		<path class="st0" d="M20.8,6.9h-8.6c-0.1,0-0.2,0-0.3,0.1c-0.1,0.1-0.1,0.2-0.1,0.3v2.6c0,0.1,0,0.2,0.1,0.3
			c0.1,0.1,0.2,0.1,0.3,0.1h8.6c0.1,0,0.2,0,0.3-0.1c0.1-0.1,0.1-0.2,0.1-0.3V7.3c0-0.1,0-0.2-0.1-0.3C21,6.9,20.9,6.9,20.8,6.9z"/>
	</g>
</g>
</svg>
