<?xml version="1.0" encoding="utf-8"?>
<!-- Generator: Adobe Illustrator 19.2.1, SVG Export Plug-In . SVG Version: 6.00 Build 0)  -->
<svg version="1.1" id="Layer_1" xmlns="http://www.w3.org/2000/svg" xmlns:xlink="http://www.w3.org/1999/xlink" x="0px" y="0px"
	 viewBox="0 0 512 512" style="enable-background:new 0 0 512 512;" xml:space="preserve">
<style type="text/css">
	.st0{fill:#FFFFFF;}
	.st1{fill:#FFFFFF;stroke:#FFFFFF;stroke-miterlimit:10;}
</style>
<path class="st0" d="M322.2,377c-18.6-5.7-46.7-14.3-52.6-35.6c-2.2-7.9-2.2-64.1-1.6-102.1c35.4-0.4,68.4-2.2,93.9-5.1
	c47.6-5.5,47.6-12.6,47.6-15.9l-0.1-0.8l0.1-19.3c0-0.1,0-0.2,0-0.3v0c0-3.4,0-10.4-47.6-15.9c-28.9-3.4-67.2-5.2-107.9-5.2
	c-40.8,0-79.1,1.8-107.9,5.2c-47.6,5.5-47.6,12.6-47.6,15.9v20.4c0,3.4,0,10.4,47.6,15.9c25.5,3,58.4,4.7,93.9,5.1
	c0.6,37.9,0.6,94.2-1.6,102.1c-5.9,21.3-34,29.9-52.6,35.6c-13,4-20.2,6.2-20.2,11.9c0,0.5-0.1,1.9,0.8,3.2c0.7,1.5,1.7,2,1.7,2
	c8.1,6,50.3,8.7,86.1,8.7c35.8,0,78-2.7,85.8-8.5c1.3-0.8,2.7-2.6,2.7-5.3C342.4,383.2,335.2,381,322.2,377z"/>
<path class="st0" d="M253.9,183.6c86.9,0,141.4,8.2,148.2,14.2c-0.1,0.1-0.3,0.3-0.4,0.4c-0.2,0.2-0.5,0.4-0.9,0.5
	c-0.4,0.2-0.8,0.4-1.3,0.6c-0.4,0.2-0.9,0.4-1.4,0.6c-0.6,0.2-1.3,0.4-1.9,0.7c-0.6,0.2-1.2,0.4-1.8,0.6c-0.8,0.2-1.7,0.4-2.6,0.7
	c-0.7,0.2-1.5,0.4-2.3,0.6c-1,0.2-2.1,0.4-3.2,0.7c-0.9,0.2-1.8,0.4-2.8,0.5c-1.2,0.2-2.5,0.4-3.8,0.7c-1.1,0.2-2.1,0.4-3.2,0.5
	c-1.4,0.2-2.9,0.4-4.3,0.6c-1.2,0.2-2.4,0.4-3.7,0.5c-1.6,0.2-3.2,0.4-4.9,0.6c-1.4,0.2-2.7,0.3-4.1,0.5c-1.8,0.2-3.6,0.4-5.5,0.6
	c-1.5,0.2-3,0.3-4.5,0.5c-1.9,0.2-4,0.4-6,0.5c-1.6,0.1-3.2,0.3-5,0.4c-2.1,0.2-4.4,0.3-6.6,0.5c-1.8,0.1-3.5,0.3-5.3,0.4
	c-2.3,0.2-4.7,0.3-7.1,0.4c-1.9,0.1-3.7,0.2-5.7,0.3c-2.5,0.1-5.1,0.2-7.7,0.3c-2,0.1-3.9,0.2-5.9,0.3c-2.9,0.1-5.9,0.2-8.9,0.3
	c-1.9,0.1-3.7,0.1-5.6,0.2c-3.5,0.1-7.2,0.1-10.9,0.2c-1.5,0-3,0.1-4.5,0.1c-5.3,0.1-10.7,0.1-16.2,0.1c-5.5,0-10.9,0-16.2-0.1
	c-2,0-3.9-0.1-5.9-0.1c-3.2-0.1-6.4-0.1-9.4-0.2c-2.9-0.1-5.6-0.2-8.4-0.3c-2-0.1-4-0.1-6-0.2c-3.9-0.1-7.6-0.3-11.3-0.5
	c-0.7,0-1.3-0.1-2-0.1c-52.3-2.6-84.2-8.4-89.1-12.9C112.1,191.8,166.7,183.6,253.9,183.6z"/>
<path class="st0" d="M105.2,205.4c0.3,0.1,0.6,0.2,0.9,0.4c0.4,0.2,0.8,0.3,1.2,0.5c0.5,0.2,1.1,0.4,1.7,0.6c0.5,0.2,1,0.3,1.5,0.5
	c0.6,0.2,1.3,0.4,2,0.6c0.3,0.1,0.5,0.2,0.8,0.2l-8.1,9.7L105.2,205.4L105.2,205.4z"/>
<path class="st0" d="M108.5,220l9-10.8c0.5,0.1,0.9,0.2,1.4,0.3c1,0.2,2,0.4,3.1,0.6c0.7,0.1,1.4,0.3,2.1,0.4l-9.5,11.4
	C112.1,221.3,110.1,220.6,108.5,220z"/>
<path class="st0" d="M118.9,223l9.7-11.6c0.7,0.1,1.3,0.2,2,0.3c1.5,0.2,3.2,0.5,4.9,0.7l-9.9,11.9
	C123.1,223.8,120.9,223.4,118.9,223z"/>
<path class="st0" d="M129.9,225.1L140,213c1.9,0.3,3.9,0.5,6,0.7c0.3,0,0.7,0.1,1,0.1l-10.2,12.2
	C134.4,225.7,132.1,225.4,129.9,225.1z"/>
<path class="st0" d="M141.4,226.7l10.3-12.3c28.1,3,64.1,4.6,102.3,4.6c40.8,0,79.1-1.8,107.9-5.2c2.9-0.3,5.6-0.7,8.2-1
	c0.9-0.1,1.7-0.2,2.5-0.4c1.6-0.2,3.2-0.5,4.7-0.7c0.9-0.1,1.7-0.3,2.5-0.4c1.3-0.2,2.6-0.4,3.7-0.6c0.8-0.2,1.6-0.3,2.4-0.5
	c1-0.2,2.1-0.4,3-0.6c0.8-0.2,1.4-0.3,2.1-0.5c0.8-0.2,1.7-0.4,2.4-0.6c0.7-0.2,1.3-0.3,1.9-0.5c0.7-0.2,1.4-0.4,2-0.6
	c0.6-0.2,1.1-0.4,1.6-0.5c0.5-0.2,1.1-0.4,1.6-0.6c0.5-0.2,0.9-0.4,1.3-0.5c0.3-0.1,0.6-0.2,0.8-0.3l0,12.5l0,0.1
	c-5.2,6-60.1,14.5-148.6,14.5C205.4,232.5,167,229.9,141.4,226.7z"/>
<path class="st0" d="M253.9,395.8c-41.6,0-72.9-3.3-81.1-6.9c2.4-1.6,9.2-3.7,14.9-5.4c20-6.1,50.2-15.4,57.2-40.3
	c3-10.8,2.2-84.9,1.9-103.9h14.4c-0.3,18.9-1.2,93,1.9,103.9c7,24.9,37.2,34.2,57.2,40.3c5.7,1.7,12.6,3.9,14.9,5.4
	C328.2,392.3,296.4,395.8,253.9,395.8z"/>
<path class="st1" d="M142,265.1H38.3c-1.2,0-2.3,0.2-3.4,0.7c-0.9-14-1.7-28-2.6-42.1c0.5,0.1,1,0.3,1.5,0.3c0.1,0,0.3,0,0.4,0
	c4.8-0.2,8.5-4.3,8.3-9.1l-4.6-103.7c-0.2-4.8-4.4-8.6-9.1-8.3c-4.8,0.2-8.5,4.3-8.3,9.1l0,0.2c-0.8-0.2-9.2,0.1-12.6,0L0,112.2
	v299.9c0,0,13,0.3,17.6,0.3c8,0,8.5-6.2,8.6-8.3c1.4-16.6,1.8-53.5,2-77.8c0.1-7.9,0.2-14.9,0.3-18.9h85.1
	c0.4,3.8,1.2,11.1,2.1,19.1c2.6,23.9,6.6,60,9,78.9c0.2,2,2,5.8,5.1,6.3c2.4,0.4,4.7,0.3,6.9,0.2l5.7,0V282.4c4.6-0.2,8.3-4,8.3-8.6
	C150.7,269,146.8,265.1,142,265.1z"/>
<path class="st1" d="M29,106.9c0.1,0,0.1,0,0.2,0c2.5,0,4.7,2,4.8,4.6l4.6,103.7c0.1,2.6-1.9,4.9-4.6,5c-0.7,0-1.4-0.1-2-0.3
	c-0.8-13.3-7.7-107.9-7.7-107.9C24.3,109.2,26.3,107,29,106.9z"/>
<path class="st1" d="M135.5,405.1c-1.3,0-2.6,0-3.8-0.1c-0.1-0.2-0.2-0.4-0.2-0.5c-2.4-18.8-6.3-54.9-9-78.8
	c-2.2-20.3-2.4-22-2.5-22.6l-0.6-2.7H22.1c0,0-1.4,86.7-2.7,103.1c-0.1,1-0.2,1.5-0.2,1.5c-0.2,0-12.1,0-12.4,0v-286l0.9,0
	c3.5,0.1,7,0.1,10.5,0c0.4,0,0.7,0,0.8,0c0,0.2,0.1,0.5,0.1,1.1c0.8,15.5,1.8,31,2.7,46.5l0.8,13.8c2,32.3,6.4,105.9,6.4,105.9
	h106.4V405.1z"/>
<path class="st1" d="M142,278.6H38.3c-1,0-1.8-0.4-2.6-0.9c0-0.3-0.1-0.6-0.1-0.9c-0.1-2.2-0.3-4.4-0.4-6.6c0.8-0.7,1.9-1.2,3.1-1.2
	H142c2.6,0,4.8,2.2,4.8,4.8C146.8,276.4,144.7,278.6,142,278.6z"/>
<path class="st0" d="M504.1,112.3c-3.4,0.1-6.7,0.1-10.1,0c-1,0-1.8,0.1-2.5,0.3l0-0.5c0.2-4.8-3.5-8.9-8.3-9.1
	c-5-0.3-8.9,3.5-9.1,8.3l-4.6,103.7c-0.2,4.8,3.5,8.9,8.3,9.1c0.1,0,0.3,0,0.4,0c0.5,0,1-0.2,1.5-0.3c-0.9,14-1.7,28-2.6,42.1
	c-1-0.4-2.2-0.7-3.4-0.7H370c-4.8,0-8.7,3.9-8.7,8.7c0,4.7,3.7,8.4,8.3,8.6v129.4l5.7,0c2.2,0.1,4.5,0.1,6.9-0.2
	c3.1-0.5,4.8-4.3,5.1-6.3c2.4-18.9,6.3-55,9-78.9c0.9-8.1,1.7-15.3,2.1-19.1h85.1c0.1,4,0.2,11.1,0.3,18.9c0.3,24.4,0.7,61.2,2,77.8
	c0.2,2.1,0.6,8,8.8,7.9c4.1-0.1,17.5,0.1,17.5,0.1V112.2L504.1,112.3z"/>
<path class="st0" d="M478.2,220.1c-0.1,0-0.1,0-0.2,0c-2.6-0.1-4.7-2.4-4.6-5l4.6-103.7c0.1-2.6,2.1-4.7,5-4.6
	c2.6,0.1,4.7,2.4,4.6,5l-0.1,3.2c-0.8,1.2-6.7,91.5-7.5,104.7C479.4,220,478.8,220.1,478.2,220.1z"/>
<path class="st0" d="M370,278.6c-2.6,0-4.8-2.2-4.8-4.8s2.2-4.8,4.8-4.8h103.8c1.2,0,2.3,0.5,3.1,1.2c-0.1,2.2-0.3,4.4-0.4,6.6
	c0,0.3-0.1,0.6-0.1,0.9c-0.8,0.5-1.6,0.9-2.6,0.9L370,278.6L370,278.6z"/>
<path class="st0" d="M505.1,405.1c-0.3,0-11.6,0.1-11.8,0.1c-0.3,0-0.5,0-0.5,0c-0.1-0.2-0.2-0.6-0.3-1.6c-1.3-16.4-1.7-53.1-2-77.4
	c-0.2-13.7-0.2-25.7-0.2-25.7h-97.8l-0.6,2.7c-0.1,0.5-0.3,2.2-2.5,22.6c-2.6,23.9-6.6,59.9-9,78.7c0,0.1-0.1,0.3-0.2,0.5
	c-1.2,0.1-2.5,0.1-3.8,0.1V286.4h107c0,0,3.8-73.7,5.8-105.9l0.8-13.8c0.9-15.5,1.9-31,2.7-46.5c0-0.5,0.1-0.9,0.1-1
	c0.2,0,12.3,0,12.3,0L505.1,405.1L505.1,405.1z"/>
</svg>
