<?xml version="1.0" encoding="utf-8"?>
<!-- Generator: Adobe Illustrator 19.2.1, SVG Export Plug-In . SVG Version: 6.00 Build 0)  -->
<svg version="1.1" id="Capa_1" xmlns="http://www.w3.org/2000/svg" xmlns:xlink="http://www.w3.org/1999/xlink" x="0px" y="0px"
	 viewBox="0 0 512 512" style="enable-background:new 0 0 512 512;" xml:space="preserve">
<style type="text/css">
	.st0{fill:#FFFFFF;}
</style>
<g>
	<g>
		<path class="st0" d="M91.3,0c-8.1,0-15.7,3.4-21.1,9.4c-5.4,6-8,14-7.2,22l46.1,444.6l6.1,5.3C121,486.5,154.7,512,256,512
			c101.3,0,135-25.4,140.8-30.6l6.1-5.4L449,31.4c0.8-8-1.8-16-7.2-22c-5.4-6-13.1-9.4-21.1-9.4L91.3,0L91.3,0z M362.7,452.9
			c-12.3,5.8-43.6,16.8-106.7,16.8c-63.5,0-94.8-11-106.7-16.7L110,73.4c-0.8-8,1.8-16,7.2-22c5.4-6,13.1-9.4,21.1-9.4h235.3
			c8.1,0,15.7,3.4,21.1,9.4s8,14,7.2,22L362.7,452.9z"/>
		<path class="st0" d="M163.7,174.6l23.2,246c0,0,24.4,13.3,65,13.3c40.7,0,77.5-13.3,77.5-13.3l22-234.4
			c-7.7,0.4-15.5,0.9-23.1,0.8C278.7,186,217.8,172.1,163.7,174.6z"/>
	</g>
</g>
</svg>
