<?xml version="1.0" encoding="UTF-8"?>
<svg width="127px" height="127px" viewBox="0 0 127 127" version="1.1" xmlns="http://www.w3.org/2000/svg" xmlns:xlink="http://www.w3.org/1999/xlink">
    <!-- Generator: Sketch 43.2 (39069) - http://www.bohemiancoding.com/sketch -->
    <title>Page 1</title>
    <desc>Created with Sketch.</desc>
    <defs>
        <polygon id="path-1" points="0.5889 12 8.7519 12 8.7519 0.7675 0.5889 0.7675"></polygon>
    </defs>
    <g id="Page-1" stroke="none" stroke-width="1" fill="none" fill-rule="evenodd">
        <g id="Loading" transform="translate(-124.000000, -270.000000)">
            <g id="Page-1" transform="translate(124.000000, 270.000000)">
                <path d="M9.5663,33.7221 C9.2353,33.8421 9.1063,33.8841 8.2423,35.5861 L7.4143,37.2171 L10.0603,38.5611 L10.9393,36.8291 C11.1643,36.3861 11.6793,35.4071 11.6963,35.0551 C11.7053,34.7891 11.5713,34.3801 10.7273,33.9511 C10.1693,33.6681 9.7893,33.6371 9.5663,33.7221 L9.5663,33.7221 Z M17.4573,37.3511 L14.9833,36.0941 C13.5383,35.3611 13.5813,35.3821 12.3973,37.7141 L11.5763,39.3301 L15.4533,41.2981 L14.5963,42.9871 L5.0553,38.1421 L6.7543,34.7951 C7.8513,32.6351 8.8373,30.9051 11.4983,32.2561 C12.6423,32.8361 13.2123,33.4141 13.1433,34.2601 C13.9953,33.3621 15.1743,34.1221 15.9613,34.5221 L18.2933,35.7051 L17.4573,37.3511 Z" id="Fill-1" fill="#FBAE17"></path>
                <polygon id="Fill-3" fill="#FBAE17" points="19.6415 33.6869 11.1995 27.1129 15.7245 21.3029 17.0535 22.3379 13.6725 26.6789 15.8105 28.3449 19.0935 24.1299 20.4095 25.1559 17.1275 29.3709 19.4435 31.1739 22.8245 26.8329 24.1655 27.8779"></polygon>
                <path d="M24.0336,15.8812 C23.5456,16.0562 22.9286,16.6652 22.5316,17.0162 L21.1616,18.2272 L23.1796,20.5112 L24.5506,19.3002 C24.9476,18.9492 25.6656,18.3572 25.8616,17.9482 C25.9926,17.6612 26.0786,17.1782 25.4626,16.4812 C24.8466,15.7832 24.3346,15.7862 24.0336,15.8812 M25.7006,20.5532 L24.3056,21.7852 L27.1326,24.9832 L25.7136,26.2352 L18.6276,18.2192 L21.4406,15.7332 C23.2316,14.1502 24.8096,12.8832 26.8606,15.2032 C28.8996,17.5112 27.5156,18.9482 25.7006,20.5532" id="Fill-5" fill="#FBAE17"></path>
                <polygon id="Fill-7" fill="#FBAE17" points="33.373 19.8021 27.892 10.6141 34.214 6.8431 35.077 8.2891 30.353 11.1081 31.742 13.4361 36.328 10.6991 37.183 12.1321 32.596 14.8681 34.1 17.3891 38.824 14.5711 39.695 16.0311"></polygon>
                <path d="M42.5185,5.6244 L42.5375,10.1184 L45.3585,9.1014 L42.5185,5.6244 Z M48.3175,12.6714 L46.4565,10.4434 L42.5345,11.8584 L42.5385,14.7564 L40.6835,15.4254 L40.9455,3.9574 L42.7705,3.2994 L50.2635,11.9694 L48.3175,12.6714 Z" id="Fill-9" fill="#FBAE17"></path>
                <polygon id="Fill-11" fill="#FBAE17" points="53.1332 2.4076 54.7522 11.2766 52.8892 11.6166 51.2712 2.7476 48.0672 3.3326 47.7642 1.6756 56.0342 0.1666 56.3372 1.8226"></polygon>
                <path d="M74.4072,2.89 C74.1892,2.615 74.1082,2.504 72.2202,2.22 L70.4122,1.948 L69.9702,4.882 L71.8892,5.171 C72.3812,5.245 73.4732,5.426 73.8122,5.331 C74.0672,5.256 74.4132,5 74.5542,4.065 C74.6482,3.446 74.5572,3.076 74.4072,2.89 L74.4072,2.89 Z M73.4472,11.523 L73.8612,8.779 C74.1022,7.176 74.0952,7.224 71.5092,6.834 L69.7172,6.564 L69.0692,10.863 L67.1972,10.58 L68.7912,0 L72.5032,0.559 C74.8992,0.92 76.8512,1.312 76.4072,4.262 C76.2152,5.532 75.8472,6.255 75.0222,6.454 C76.1432,6.981 75.7922,8.339 75.6602,9.211 L75.2712,11.797 L73.4472,11.523 Z" id="Fill-13" fill="#FBAE17"></path>
                <polygon id="Fill-15" fill="#FBAE17" points="77.6054 12.4388 81.1974 2.3588 88.1334 4.8308 87.5684 6.4178 82.3844 4.5708 81.4754 7.1248 86.5074 8.9178 85.9474 10.4898 80.9144 8.6958 79.9294 11.4608 85.1124 13.3088 84.5414 14.9108"></polygon>
                <path d="M95.894,11.0404 C95.576,10.6314 94.804,10.2344 94.347,9.9674 L92.768,9.0424 L91.227,11.6734 L92.806,12.5984 C93.263,12.8654 94.05,13.3634 94.498,13.4224 C94.813,13.4574 95.299,13.3894 95.77,12.5864 C96.24,11.7824 96.078,11.2974 95.894,11.0404 M91.974,14.0814 L90.367,13.1414 L88.209,16.8244 L86.576,15.8674 L91.986,6.6314 L95.226,8.5284 C97.29,9.7374 98.985,10.8424 97.42,13.5154 C95.863,16.1744 94.064,15.3074 91.974,14.0814" id="Fill-17" fill="#FBAE17"></path>
                <polygon id="Fill-19" fill="#FBAE17" points="95.079 21.139 102.1 13.063 107.658 17.894 106.553 19.165 102.399 15.555 100.621 17.602 104.653 21.107 103.558 22.367 99.525 18.861 97.6 21.077 101.753 24.687 100.637 25.971"></polygon>
                <path d="M111.4028,25.3871 L107.1388,26.8161 L108.9918,29.1761 L111.4028,25.3871 Z M106.5288,33.1081 L108.0608,30.6411 L105.4848,27.3591 L102.7348,28.2731 L101.5158,26.7201 L112.4918,23.3691 L113.6908,24.8971 L107.8068,34.7361 L106.5288,33.1081 Z" id="Fill-21" fill="#FBAE17"></path>
                <polygon id="Fill-23" fill="#FBAE17" points="117.791 34.4525 109.88 38.7815 108.971 37.1205 116.882 32.7915 115.318 29.9335 116.796 29.1255 120.833 36.5015 119.354 37.3095"></polygon>
                <path d="M123.9911,54.8031 C124.1861,54.5101 124.2651,54.3991 123.9481,52.5161 L123.6431,50.7121 L120.7161,51.2061 L121.0391,53.1201 C121.1221,53.6111 121.2901,54.7051 121.4861,54.9971 C121.6371,55.2161 121.9881,55.4661 122.9221,55.3091 C123.5381,55.2041 123.8631,55.0031 123.9911,54.8031 L123.9911,54.8031 Z M115.4881,56.5781 L118.2251,56.1171 C119.8231,55.8481 119.7761,55.8561 119.3411,53.2771 L119.0391,51.4891 L114.7511,52.2121 L114.4361,50.3451 L124.9901,48.5651 L125.6151,52.2681 C126.0171,54.6571 126.2531,56.6351 123.3101,57.1311 C122.0441,57.3441 121.2421,57.2191 120.7951,56.4971 C120.6441,57.7271 119.2431,57.8171 118.3731,57.9631 L115.7951,58.3981 L115.4881,56.5781 Z" id="Fill-25" fill="#FBAE17"></path>
                <g id="Group-29" transform="translate(115.000000, 60.456000)" fill="#FBAE17">
                    <polygon id="Fill-27" points="0.9101 0.3754 11.6111 0.6264 11.4381 7.9894 9.7541 7.9504 9.8831 2.4474 7.1711 2.3844 7.0461 7.7264 5.3781 7.6874 5.5031 2.3454 2.5671 2.2764 2.4381 7.7784 0.7381 7.7394"></polygon>
                </g>
                <path d="M122.9911,77.7474 C123.2801,77.3164 123.4121,76.4594 123.5221,75.9414 L123.9011,74.1524 L120.9201,73.5194 L120.5401,75.3094 C120.4301,75.8264 120.2061,76.7294 120.2921,77.1754 C120.3581,77.4834 120.5761,77.9244 121.4861,78.1164 C122.3961,78.3094 122.8061,78.0034 122.9911,77.7474 M118.8701,74.9874 L119.2571,73.1674 L115.0821,72.2814 L115.4751,70.4304 L125.9421,72.6504 L125.1621,76.3224 C124.6661,78.6604 124.1531,80.6174 121.1251,79.9754 C118.1121,79.3364 118.3681,77.3564 118.8701,74.9874" id="Fill-30" fill="#FBAE17"></path>
                <polygon id="Fill-32" fill="#FBAE17" points="113.1498 80.1596 123.0178 84.2966 120.1708 91.0866 118.6178 90.4356 120.7448 85.3606 118.2448 84.3126 116.1788 89.2386 114.6408 88.5946 116.7058 83.6686 113.9988 82.5326 111.8708 87.6076 110.3038 86.9496"></polygon>
                <path d="M114.2231,96.9857 L111.5351,93.3807 L109.8701,95.8767 L114.2231,96.9857 Z M105.3671,94.7627 L108.1881,95.4487 L110.5031,91.9777 L108.7761,89.6497 L109.8711,88.0077 L116.4791,97.3907 L115.4021,99.0067 L104.2181,96.4847 L105.3671,94.7627 Z" id="Fill-34" fill="#FBAE17"></path>
                <polygon id="Fill-36" fill="#FBAE17" points="107.5927 105.893 101.0117 99.729 102.3057 98.347 108.8867 104.511 111.1127 102.134 112.3427 103.286 106.5957 109.421 105.3657 108.27"></polygon>
                <path d="M90.2319,118.1596 C90.5709,118.2516 90.7019,118.2916 92.3879,117.3966 L94.0039,116.5406 L92.6139,113.9186 L90.8989,114.8276 C90.4599,115.0606 89.4739,115.5646 89.2579,115.8436 C89.0979,116.0556 88.9709,116.4676 89.4149,117.3036 C89.7079,117.8556 90.0009,118.0996 90.2319,118.1596 L90.2319,118.1596 Z M85.8689,110.6486 L87.1689,113.1006 C87.9279,114.5326 87.9049,114.4896 90.2149,113.2646 L91.8169,112.4166 L89.7799,108.5746 L91.4529,107.6876 L96.4659,117.1416 L93.1489,118.9006 C91.0089,120.0356 89.2059,120.8826 87.8079,118.2456 C87.2069,117.1116 87.0729,116.3116 87.6169,115.6596 C86.4029,115.9036 85.8769,114.6026 85.4629,113.8236 L84.2379,111.5136 L85.8689,110.6486 Z" id="Fill-38" fill="#FBAE17"></path>
                <polygon id="Fill-40" fill="#FBAE17" points="81.9799 112.3861 85.0879 122.6231 78.0429 124.7621 77.5529 123.1501 82.8179 121.5521 82.0309 118.9581 76.9189 120.5101 76.4349 118.9131 81.5459 117.3631 80.6929 114.5531 75.4289 116.1511 74.9349 114.5251"></polygon>
                <path d="M68.0976,124.3871 C68.5976,124.5271 69.4526,124.3861 69.9796,124.3301 L71.7986,124.1341 L71.4726,121.1041 L69.6536,121.2991 C69.1276,121.3561 68.1996,121.4231 67.8026,121.6431 C67.5296,121.8021 67.1796,122.1461 67.2786,123.0711 C67.3776,123.9961 67.7966,124.2901 68.0976,124.3871 M69.4406,119.6121 L71.2906,119.4121 L70.8356,115.1691 L72.7176,114.9671 L73.8606,125.6081 L70.1276,126.0081 C67.7506,126.2641 65.7306,126.3841 65.3996,123.3051 C65.0706,120.2421 67.0316,119.8701 69.4406,119.6121" id="Fill-42" fill="#FBAE17"></path>
                <g id="Group-46" transform="translate(54.000000, 114.456000)">
                    <mask id="mask-2" fill="white">
                        <use xlink:href="#path-1"></use>
                    </mask>
                    <g id="Clip-45"></g>
                    <polygon id="Fill-44" fill="#FBAE17" mask="url(#mask-2)" points="8.7519 1.3325 7.9299 12.0005 0.5889 11.4345 0.7179 9.7555 6.2039 10.1785 6.4129 7.4755 1.0859 7.0645 1.2149 5.4015 6.5409 5.8115 6.7659 2.8855 1.2799 2.4625 1.4109 0.7675"></polygon>
                </g>
                <path d="M47.1088,122.1029 L49.6858,118.4169 L46.7918,117.6229 L47.1088,122.1029 Z M46.4318,112.9979 L46.6688,115.8919 L50.6918,116.9969 L52.3578,114.6259 L54.2608,115.1489 L47.4338,124.3719 L45.5618,123.8579 L44.4368,112.4499 L46.4318,112.9979 Z" id="Fill-47" fill="#FBAE17"></path>
                <polygon id="Fill-49" fill="#FBAE17" points="36.5761 118.6068 40.3681 110.4248 42.0861 111.2218 38.2941 119.4028 41.2491 120.7728 40.5401 122.3008 32.9121 118.7648 33.6201 117.2368"></polygon>
                <path d="M19.4887,105.9291 C19.5067,106.2811 19.5097,106.4161 20.8857,107.7401 L22.2037,109.0081 L24.2617,106.8681 L22.8627,105.5231 C22.5037,105.1781 21.7177,104.3991 21.3857,104.2811 C21.1347,104.1951 20.7037,104.2031 20.0477,104.8851 C19.6137,105.3361 19.4727,105.6911 19.4887,105.9291 L19.4887,105.9291 Z M25.2627,99.4401 L23.3387,101.4401 C22.2157,102.6081 22.2487,102.5741 24.1337,104.3861 L25.4407,105.6431 L28.4537,102.5101 L29.8187,103.8221 L22.4007,111.5331 L19.6947,108.9321 C17.9487,107.2521 16.5817,105.8041 18.6507,103.6531 C19.5397,102.7281 20.2597,102.3511 21.0487,102.6641 C20.4367,101.5871 21.5087,100.6811 22.1207,100.0451 L23.9327,98.1611 L25.2627,99.4401 Z" id="Fill-51" fill="#FBAE17"></path>
                <polygon id="Fill-53" fill="#FBAE17" points="22.3857 96.2816 13.6387 102.4486 9.3957 96.4296 10.7727 95.4596 13.9437 99.9576 16.1597 98.3946 13.0817 94.0276 14.4457 93.0666 17.5237 97.4326 19.9237 95.7406 16.7517 91.2436 18.1427 90.2626"></polygon>
                <path d="M6.6352,86.8998 C6.6592,87.4178 7.0622,88.1858 7.2812,88.6678 L8.0402,90.3318 L10.8142,89.0688 L10.0552,87.4038 C9.8362,86.9218 9.4802,86.0618 9.1462,85.7548 C8.9092,85.5458 8.4722,85.3218 7.6262,85.7078 C6.7792,86.0928 6.6322,86.5838 6.6352,86.8998 M11.5902,86.6698 L12.3612,88.3628 L16.2442,86.5938 L17.0292,88.3168 L7.2922,92.7528 L5.7362,89.3368 C4.7442,87.1618 3.9942,85.2828 6.8122,83.9988 C9.6152,82.7218 10.5852,84.4648 11.5902,86.6698" id="Fill-55" fill="#FBAE17"></path>
                <polygon id="Fill-57" fill="#FBAE17" points="13.1122 79.1146 2.7162 81.6556 0.9672 74.5026 2.6042 74.1016 3.9112 79.4476 6.5452 78.8036 5.2762 73.6136 6.8972 73.2176 8.1662 78.4076 11.0182 77.7106 9.7112 72.3646 11.3622 71.9606"></polygon>
                <path d="M2.2416,66.2123 L6.5456,67.5123 L6.3996,64.5153 L2.2416,66.2123 Z M10.6816,62.7313 L8.0056,63.8583 L8.2096,68.0243 L10.9816,68.8693 L11.0776,70.8403 L0.1866,67.2283 L0.0916,65.2893 L10.5806,60.6643 L10.6816,62.7313 Z" id="Fill-59" fill="#FBAE17"></path>
                <polygon id="Fill-61" fill="#FBAE17" points="2.2573 55.139 11.2133 56.161 10.9993 58.041 2.0433 57.019 1.6733 60.254 0.0003 60.063 0.9533 51.712 2.6273 51.904"></polygon>
            </g>
        </g>
    </g>
</svg>