<?xml version="1.0" encoding="utf-8"?>
<!-- Generator: Adobe Illustrator 19.2.1, SVG Export Plug-In . SVG Version: 6.00 Build 0)  -->
<svg version="1.1" id="Layer_1" xmlns="http://www.w3.org/2000/svg" xmlns:xlink="http://www.w3.org/1999/xlink" x="0px" y="0px"
	 viewBox="0 0 512 512" style="enable-background:new 0 0 512 512;" xml:space="preserve">
<style type="text/css">
	.st0{fill:#FFFFFF;}
</style>
<g>
	<g>
		<path class="st0" d="M505.8,3.7c-7.1-5.8-17.5-4.6-23.2,2.6L219.2,337.7L133,229.2c-5.7-7.2-16.1-8.3-23.2-2.6
			c-7.1,5.8-8.2,16.3-2.5,23.4l95.4,120.1c2.9,5.2,8.3,8.3,14.1,8.3c0.9,0,1.8-0.3,2.8-0.4c0.5,0.1,1.1,0.4,1.6,0.4
			c5.2,0,10.3-2.6,13.5-6.9L508.4,27.1C514.1,19.9,512.9,9.4,505.8,3.7L505.8,3.7z"/>
		<path class="st0" d="M473.3,169.5c-9.1,0-16.5,7.5-16.5,16.7V462c0,9.2-7.4,16.7-16.5,16.7H49.5c-9.1,0-16.5-7.5-16.5-16.7V67.1
			c0-9.2,7.4-16.7,16.5-16.7H320c9.1,0,16.5-7.5,16.5-16.7c0-9.2-7.4-16.7-16.5-16.7H49.5C22.2,17.1,0,39.6,0,67.1V462
			c0,27.6,22.2,50,49.5,50h390.7c27.3,0,49.5-22.4,49.5-50V186.1C489.8,176.9,482.4,169.5,473.3,169.5L473.3,169.5z"/>
	</g>
</g>
</svg>
