<?xml version="1.0" encoding="UTF-8"?>
<svg width="20px" height="20px" viewBox="0 0 20 20" version="1.1" xmlns="http://www.w3.org/2000/svg" xmlns:xlink="http://www.w3.org/1999/xlink">
    <!-- Generator: Sketch 43.2 (39069) - http://www.bohemiancoding.com/sketch -->
    <title>Group 6</title>
    <desc>Created with Sketch.</desc>
    <defs></defs>
    <g id="Page-1" stroke="none" stroke-width="1" fill="none" fill-rule="evenodd">
        <g id="Group-6" fill="#000000">
            <g id="Page-1">
                <path d="M10,20 C15.5062338,20 20,15.5062338 20,10 C20,4.49376623 15.5062338,0 10,0 C4.49376623,0 0,4.49376623 0,10 C0,15.5062338 4.49376623,20 10,20 M10,1.2987013 C14.8051948,1.2987013 18.7012987,5.19480519 18.7012987,10 C18.7012987,14.8051948 14.8051948,18.7012987 10,18.7012987 C5.19480519,18.7012987 1.2987013,14.8051948 1.2987013,10 C1.2987013,5.19480519 5.19480519,1.2987013 10,1.2987013" id="Fill-1"></path>
                <path d="M6.41537662,13.5846234 C6.54524675,13.7144935 6.70161039,13.7661818 6.88316883,13.7661818 C7.06472727,13.7661818 7.22109091,13.7144935 7.35096104,13.5846234 L9.99979221,10.909039 L12.6756364,13.5846234 C12.8055065,13.7144935 12.9616104,13.7661818 13.1431688,13.7661818 C13.324987,13.7661818 13.4810909,13.7144935 13.610961,13.5846234 C13.8707013,13.3248831 13.8707013,12.9087792 13.610961,12.6755325 L10.9091429,9.99994805 L13.5847273,7.32436364 C13.8444675,7.06462338 13.8444675,6.64851948 13.5847273,6.41527273 C13.324987,6.15553247 12.9088831,6.15553247 12.6756364,6.41527273 L10.0000519,9.09085714 L7.32446753,6.41527273 C7.06472727,6.15553247 6.64862338,6.15553247 6.41537662,6.41527273 C6.15563636,6.67501299 6.15563636,7.09111688 6.41537662,7.32436364 L9.09096104,9.99994805 L6.41537662,12.6755325 C6.15563636,12.9087792 6.15563636,13.3248831 6.41537662,13.5846234" id="Fill-3"></path>
            </g>
        </g>
    </g>
</svg>