<?xml version="1.0" encoding="UTF-8"?>
<svg width="19px" height="19px" viewBox="0 0 19 19" version="1.1" xmlns="http://www.w3.org/2000/svg" xmlns:xlink="http://www.w3.org/1999/xlink">
    <!-- Generator: Sketch 43.2 (39069) - http://www.bohemiancoding.com/sketch -->
    <title>Fill 1</title>
    <desc>Created with Sketch.</desc>
    <defs></defs>
    <g id="Page-1" stroke="none" stroke-width="1" fill="none" fill-rule="evenodd" opacity="0.3">
        <g id="Desktop-HD-Copy-23" transform="translate(-665.000000, -666.000000)" fill="#343845">
            <g id="Group-5-Copy" transform="translate(495.000000, 646.000000)">
                <g id="Group">
                    <g id="Group-Copy" transform="translate(170.000000, 20.000000)">
                        <path d="M9.03906,11.45168 L8.84906,4.94 L10.15132,4.94 L9.96132,11.45168 L9.03906,11.45168 Z M8.69972,13.39196 C8.69972,12.90404 9.03906,12.55064 9.49962,12.55064 C9.98754,12.55064 10.30028,12.90404 10.30028,13.39196 C10.30028,13.86696 9.98754,14.23252 9.49962,14.23252 C9.02462,14.23252 8.69972,13.86696 8.69972,13.39196 L8.69972,13.39196 Z M9.5,18.24 C4.67324,18.24 0.76,14.32714 0.76,9.5 C0.76,4.67324 4.67324,0.76 9.5,0.76 C14.32714,0.76 18.24,4.67324 18.24,9.5 C18.24,14.32714 14.32714,18.24 9.5,18.24 L9.5,18.24 Z M9.5,0 C4.25334,0 0,4.25372 0,9.5 C0,14.74704 4.25334,19 9.5,19 C14.74704,19 19,14.74704 19,9.5 C19,4.25372 14.74704,0 9.5,0 L9.5,0 Z" id="Fill-1"></path>
                    </g>
                </g>
            </g>
        </g>
    </g>
</svg>