<?xml version="1.0" encoding="UTF-8"?>
<svg width="65px" height="65px" viewBox="0 0 85 85" version="1.1" xmlns="http://www.w3.org/2000/svg" xmlns:xlink="http://www.w3.org/1999/xlink">
    <!-- Generator: Sketch 43.2 (39069) - http://www.bohemiancoding.com/sketch -->
    <title>Page 1</title>
    <desc>Created with Sketch.</desc>
    <defs>
        <polygon id="path-1" points="6.28884227 0.36125 0.130753906 0.36125 0.130753906 8.19546094 6.28884227 8.19546094 6.28884227 0.36125"></polygon>
        <polygon id="path-3" points="7.71042969 5.30572656 7.71042969 0.249554688 0.490277344 0.249554687 0.490277344 5.30572656 7.71042969 5.30572656"></polygon>
    </defs>
    <g id="Page-1" stroke="none" stroke-width="1" fill="none" fill-rule="evenodd">
        <g id="iPhone-7-Copy-54" transform="translate(-19.000000, -43.000000)">
            <g id="Page-1" transform="translate(19.000000, 43.000000)">
                <path d="M6.35282031,23.0572461 C6.13301562,23.1369336 6.04735156,23.1654883 5.4729375,24.2957227 L4.92375781,25.3781445 L6.68086719,26.2706445 L7.26457812,25.1211523 C7.41399219,24.8269727 7.75598437,24.1761914 7.76727344,23.9424414 C7.77258594,23.7664648 7.68426562,23.4941992 7.12379687,23.2099805 C6.75325,23.0213867 6.50090625,23.0014648 6.35282031,23.0572461 L6.35282031,23.0572461 Z M11.5929375,25.4671289 L9.95004687,24.6324023 C8.99047656,24.1456445 9.01903125,24.1602539 8.23278125,25.7081836 L7.68758594,26.7813086 L10.2621562,28.0888477 L9.69305469,29.2097852 L3.35723437,25.9930664 L4.48547656,23.7697852 C5.21395312,22.3360742 5.86871875,21.1872461 7.63578906,22.0837305 C8.39547656,22.4695508 8.77399219,22.8527148 8.72817187,23.4151758 C9.29395312,22.8181836 10.0768828,23.3228711 10.5995,23.5884961 L12.1474297,24.3747461 L11.5929375,25.4671289 Z" id="Fill-1" fill="#FEFEFE"></path>
                <polygon id="Fill-3" fill="#FEFEFE" points="13.0430508 23.0345352 7.43769922 18.6683242 10.441918 14.8107852 11.324457 15.4974258 9.07926172 18.3807852 10.4996914 19.4864492 12.6791445 16.6880898 13.5537148 17.369418 11.3735977 20.1677773 12.9115664 21.365082 15.1567617 18.4830508 16.0472695 19.176332"></polygon>
                <path d="M15.9599453,11.2104375 C15.6358828,11.3259844 15.2261562,11.7310625 14.9625234,11.9641484 L14.0527578,12.7683281 L15.3928359,14.2850469 L16.3032656,13.4802031 C16.5662344,13.2471172 17.0436953,12.8546562 17.1731875,12.5830547 C17.2601797,12.3918047 17.3179531,12.0710625 16.9088906,11.6082109 C16.4991641,11.1453594 16.1598281,11.1466875 15.9599453,11.2104375 M17.0669375,14.3122734 L16.1405703,15.1303984 L18.017875,17.2540703 L17.0755703,18.0861406 L12.3700234,12.7623516 L14.2373672,11.1121562 C15.4267031,10.0609453 16.4752578,9.21957812 17.8365859,10.7595391 C19.1912734,12.2921953 18.2722109,13.2471172 17.0669375,14.3122734" id="Fill-5" fill="#FEFEFE"></path>
                <polygon id="Fill-7" fill="#FEFEFE" points="22.1615586 13.8135625 18.5224961 7.71282031 22.7206992 5.20864062 23.2937852 6.168875 20.1560898 8.04086719 21.0784727 9.58614062 24.1245273 7.76860156 24.6916367 8.72020312 21.645582 10.5370781 22.644332 12.2111797 25.7820273 10.3398516 26.3597617 11.3093828"></polygon>
                <path d="M28.2347422,4.39861719 L28.2473594,7.38357813 L30.1206797,6.70822656 L28.2347422,4.39861719 Z M32.0856406,9.07892969 L30.8498203,7.59939844 L28.2453672,8.53904688 L28.2486875,10.4628359 L27.0161875,10.9077578 L27.1901719,3.29228906 L28.40275,2.85467188 L33.3785703,8.61275781 L32.0856406,9.07892969 Z" id="Fill-9" fill="#FEFEFE"></path>
                <polygon id="Fill-11" fill="#FEFEFE" points="35.2836328 2.263125 36.35875 8.15269531 35.1222656 8.37847656 34.0471484 2.48890625 31.9194922 2.87738281 31.7189453 1.77703125 37.2100781 0.774296875 37.4112891 1.87464844"></polygon>
                <g id="Group-15" transform="translate(44.492188, 0.302813)">
                    <mask id="mask-2" fill="white">
                        <use xlink:href="#path-1"></use>
                    </mask>
                    <g id="Clip-14"></g>
                    <path d="M4.91864453,2.28065625 C4.77387891,2.097375 4.72075391,2.02432813 3.46700391,1.83573437 L2.26571484,1.65510938 L1.97219922,3.60346875 L3.24653516,3.79538281 C3.57325391,3.84452344 4.29841016,3.96471875 4.52352734,3.90163281 C4.69286328,3.85182812 4.92329297,3.68182812 5.01692578,3.06026563 C5.07868359,2.649875 5.01891797,2.40350781 4.91864453,2.28065625 L4.91864453,2.28065625 Z M4.28114453,8.01284375 L4.55606641,6.19065625 C4.71610547,5.12616406 4.71145703,5.15803906 2.99485547,4.89905469 L1.80419141,4.71975781 L1.37387891,7.5745625 L0.130753906,7.38729687 L1.18993359,0.360851562 L3.65493359,0.732726562 C5.24536328,0.972453125 6.54161328,1.23276562 6.24676953,3.19175 C6.11993359,4.03444531 5.87489453,4.5145625 5.32704297,4.647375 C6.07145703,4.99667187 5.83837109,5.89913281 5.75137891,6.47819531 L5.49239453,8.19546094 L4.28114453,8.01284375 Z" id="Fill-13" fill="#FEFEFE" mask="url(#mask-2)"></path>
                </g>
                <polygon id="Fill-16" fill="#FEFEFE" points="51.5346367 8.92387109 53.9199492 2.23078516 58.5265508 3.87234766 58.1506914 4.92555078 54.7088555 3.69902734 54.1045586 5.39504297 57.4461211 6.58570703 57.0742461 7.62961328 53.7326836 6.43894922 53.077918 8.27508203 56.5197539 9.50226953 56.1412383 10.5660977"></polygon>
                <path d="M63.6794102,7.99517969 C63.4682383,7.72357813 62.955582,7.45994531 62.6521055,7.28264063 L61.6042148,6.66838281 L60.5802305,8.41553125 L61.6287852,9.02978906 C61.9322617,9.20775781 62.4548789,9.53779688 62.753043,9.57764063 C62.9615586,9.60088281 63.284957,9.5550625 63.5970664,9.02182031 C63.9091758,8.48857813 63.8022617,8.16650781 63.6794102,7.99517969 M61.0762852,10.0152578 L60.0098008,9.39103906 L58.5767539,11.8361172 L57.4916758,11.2006094 L61.0842539,5.06732813 L63.2358164,6.32771875 C64.6064414,7.12990625 65.7326914,7.86435938 64.6927695,9.63939844 C63.6588242,11.4044766 62.4648398,10.8287344 61.0762852,10.0152578" id="Fill-18" fill="#FEFEFE"></path>
                <polygon id="Fill-20" fill="#FEFEFE" points="63.1382656 14.7020117 67.8006484 9.33837891 71.4921719 12.5471289 70.7577187 13.3904883 67.9998672 10.9932227 66.8185 12.3525586 69.496 14.6800977 68.7688516 15.5168164 66.0913516 13.1892773 64.8123672 14.6608398 67.5702187 17.0581055 66.8297891 17.9100977"></polygon>
                <path d="M73.9785547,17.5222852 L71.1469922,18.4712305 L72.3775,20.039082 L73.9785547,17.5222852 Z M70.7419141,22.6501758 L71.7592578,21.0119336 L70.0486328,18.8324805 L68.2224609,19.4394336 L67.4129687,18.4081445 L74.7017187,16.1828711 L75.4979297,17.1975586 L71.5905859,23.7312695 L70.7419141,22.6501758 Z" id="Fill-22" fill="#FEFEFE"></path>
                <polygon id="Fill-24" fill="#FEFEFE" points="78.2203867 23.5429414 72.9669883 26.417668 72.3633555 25.3146602 77.6167539 22.4399336 76.5781602 20.542043 77.5596445 20.0054805 80.2404648 24.9036055 79.2589805 25.440168"></polygon>
                <path d="M82.3380391,37.0563477 C82.4675312,36.8617773 82.5193281,36.7887305 82.3088203,35.5383008 L82.1069453,34.340332 L80.1632344,34.6677148 L80.3777266,35.9393945 C80.4328437,36.2654492 80.5444062,36.9912695 80.6745625,37.1858398 C80.7741719,37.3312695 81.0079219,37.4972852 81.6281562,37.3930273 C82.0372187,37.3233008 82.2530391,37.1898242 82.3380391,37.0563477 L82.3380391,37.0563477 Z M76.6915156,38.2357227 L78.5090547,37.9289258 C79.5702266,37.750293 79.5390156,37.7556055 79.2501484,36.0436523 L79.0496016,34.8563086 L76.2021016,35.3357617 L75.9929219,34.095957 L83.0014375,32.9145898 L83.4158125,35.3729492 C83.6834297,36.9593945 83.8401484,38.2729102 81.8858125,38.6022852 C81.0451094,38.7443945 80.5125312,38.6613867 80.2156953,38.1812695 C80.1154219,38.9987305 79.1850703,39.0584961 78.6073359,39.1554492 L76.8947188,39.4443164 L76.6915156,38.2357227 Z" id="Fill-26" fill="#FEFEFE"></path>
                <g id="Group-30" transform="translate(76.367188, 40.810625)">
                    <mask id="mask-4" fill="white">
                        <use xlink:href="#path-3"></use>
                    </mask>
                    <g id="Clip-29"></g>
                    <polygon id="Fill-28" fill="#FEFEFE" mask="url(#mask-4)" points="0.604496094 0.249554687 7.71062891 0.415570312 7.59574609 5.30572656 6.47746484 5.27916406 6.56312891 1.62549219 4.76219141 1.58365625 4.67918359 5.13107813 3.57152734 5.10517969 3.65387109 1.55709375 1.70484766 1.51127344 1.61918359 5.16560938 0.490277344 5.13904688"></polygon>
                </g>
                <path d="M81.6739766,52.2935273 C81.8652266,52.0066523 81.9535469,51.4375508 82.0259297,51.0935664 L82.2782734,49.9062227 L80.2987031,49.4858711 L80.0463594,50.674543 C79.9733125,51.0178633 79.8245625,51.6175117 79.8816719,51.9130195 C79.9248359,52.1182148 80.0696016,52.4104023 80.6745625,52.5385664 C81.2788594,52.6667305 81.5504609,52.4628633 81.6739766,52.2935273 M78.937375,50.4600508 L79.1943672,49.251457 L76.4219062,48.6630977 L76.6828828,47.433918 L83.633625,48.9081367 L83.1156563,51.3465742 C82.7862813,52.8991523 82.4456172,54.1993867 80.4341719,53.7730586 C78.4340156,53.3480586 78.6033516,52.0338789 78.937375,50.4600508" id="Fill-31" fill="#FEFEFE"></path>
                <polygon id="Fill-33" fill="#FEFEFE" points="75.1384062 53.8946484 81.691375 56.641875 79.8007891 61.1515234 78.7695 60.7185547 80.1819609 57.3491016 78.5218047 56.6531641 77.1505156 59.9243359 76.1285234 59.4966797 77.5004766 56.2248438 75.7021953 55.4711328 74.2897344 58.8405859 73.2484844 58.4042969"></polygon>
                <path d="M75.8510781,65.0682969 L74.0660781,62.6743516 L72.9610781,64.3318516 L75.8510781,65.0682969 Z M69.9701406,63.59275 L71.844125,64.0482969 L73.3807656,61.7433359 L72.2345937,60.1973984 L72.9617422,59.1070078 L77.3492031,65.3372422 L76.6340078,66.4103672 L69.2077969,64.7362656 L69.9701406,63.59275 Z" id="Fill-35" fill="#FEFEFE"></path>
                <polygon id="Fill-37" fill="#FEFEFE" points="71.4480781 70.9832344 67.0778828 66.8906172 67.9371797 65.9728828 72.307375 70.0655 73.7862422 68.4870234 74.602375 69.2520234 70.7860078 73.3260469 69.969875 72.5617109"></polygon>
                <path d="M59.9194219,79.1290234 C60.1452031,79.1907813 60.2315312,79.2173437 61.3511406,78.6230078 L62.4242656,78.0545703 L61.5012187,76.3133984 L60.3623516,76.9170313 C60.0708281,77.0710938 59.4160625,77.4064453 59.272625,77.5910547 C59.166375,77.7318359 59.0827031,78.0060938 59.3768828,78.56125 C59.5721172,78.9278125 59.7660234,79.0898438 59.9194219,79.1290234 L59.9194219,79.1290234 Z M57.0221172,74.1419141 L57.8853984,75.7701953 C58.3894219,76.7211328 58.3741484,76.6925781 59.9087969,75.8791016 L60.9719609,75.3153125 L59.6199297,72.7646484 L60.7302422,72.1749609 L64.0591875,78.4530078 L61.8564922,79.6217578 C60.4353984,80.3754688 59.2387578,80.9372656 58.3103984,79.1867969 C57.9106328,78.43375 57.8216484,77.9018359 58.1835625,77.4695313 C57.3767266,77.6315625 57.0274297,76.7676172 56.7531719,76.2503125 L55.9396953,74.7156641 L57.0221172,74.1419141 Z" id="Fill-39" fill="#FEFEFE"></path>
                <polygon id="Fill-41" fill="#FEFEFE" points="54.4399102 75.295125 56.5031523 82.0931328 51.824832 83.5135625 51.5001055 82.4437578 54.9963945 81.3825859 54.4737773 79.6593438 51.0790898 80.6899688 50.7576836 79.630125 54.151707 78.6001641 53.5852617 76.7348125 50.0889727 77.7959844 49.7615898 76.7155547"></polygon>
                <path d="M45.2211953,83.2644727 C45.5525625,83.3581055 46.121,83.2644727 46.4709609,83.2266211 L47.6788906,83.0971289 L47.4624063,81.0843555 L46.2544766,81.2138477 C45.9051797,81.2523633 45.2882656,81.2968555 45.0252969,81.4429492 C44.8440078,81.5478711 44.6115859,81.7769727 44.6773281,82.3912305 C44.7430703,83.0048242 45.0213125,83.2000586 45.2211953,83.2644727 M46.1130313,80.0935742 L47.3415469,79.9614258 L47.0387344,77.1438086 L48.2891641,77.009668 L49.0481875,84.075293 L46.5692422,84.341582 C44.9907656,84.510918 43.6486953,84.5906055 43.4295547,82.5466211 C43.2110781,80.5119336 44.5133047,80.2649023 46.1130313,80.0935742" id="Fill-43" fill="#FEFEFE"></path>
                <polygon id="Fill-45" fill="#FEFEFE" points="41.6713164 77.5544648 41.125457 84.6386836 36.2505742 84.2634883 36.3362383 83.1485273 39.9792852 83.4287617 40.1180742 81.6338008 36.5806133 81.3615352 36.6662773 80.2565352 40.2030742 80.5288008 40.3524883 78.5857539 36.7094414 78.3055195 36.7964336 77.1792695"></polygon>
                <path d="M31.2830547,81.7476875 L32.9943438,79.3006172 L31.0732109,78.7733516 L31.2830547,81.7476875 Z M30.8341484,75.7020625 L30.9915313,77.6231953 L33.6623906,78.3576484 L34.7693828,76.7824922 L36.0324297,77.1304609 L31.498875,83.2551094 L30.25575,82.9131172 L29.5086797,75.3381562 L30.8341484,75.7020625 Z" id="Fill-47" fill="#FEFEFE"></path>
                <polygon id="Fill-49" fill="#FEFEFE" points="24.2886172 79.4260586 26.8074062 73.9933633 27.9476016 74.521957 25.4294766 79.9553164 27.3917812 80.865082 26.9209609 81.8797695 21.8554922 79.5316445 22.3263125 78.516957"></polygon>
                <path d="M12.9418477,71.007207 C12.9538008,71.240957 12.955793,71.3312695 13.869543,72.2104883 L14.7447773,73.0518555 L16.1107539,71.6314258 L15.1823945,70.7382617 C14.9439961,70.5091602 14.4213789,69.9918555 14.2015742,69.9134961 C14.0348945,69.8563867 13.7480195,69.8610352 13.3123945,70.3145898 C13.0248555,70.614082 12.9312227,70.8491602 12.9418477,71.007207 L12.9418477,71.007207 Z M16.7761445,66.6987695 L15.4984883,68.0268945 C14.7527461,68.8025195 14.7746602,68.7792773 16.026418,69.9832227 L16.8943477,70.8179492 L18.895168,68.7367773 L19.8016133,69.6086914 L14.8755977,74.7292773 L13.0786445,73.0013867 C11.9185273,71.8857617 11.011418,70.9248633 12.3846992,69.4964648 C12.9757148,68.882207 13.4531758,68.6318555 13.9771211,68.839707 C13.5713789,68.1245117 14.2832539,67.5228711 14.6889961,67.1005273 L15.8929414,65.8487695 L16.7761445,66.6987695 Z" id="Fill-51" fill="#FEFEFE"></path>
                <polygon id="Fill-53" fill="#FEFEFE" points="14.8656367 64.6013281 9.05708203 68.6966016 6.23946484 64.6989453 7.15387891 64.0548047 9.25962109 67.0417578 10.7311836 66.0038281 8.68653516 63.1045312 9.59231641 62.4657031 11.6369648 65.3656641 13.2307148 64.2420703 11.1243086 61.2557812 12.0473555 60.6043359"></polygon>
                <path d="M4.40632031,58.3705625 C4.42225781,58.7152109 4.689875,59.2245469 4.83530469,59.544625 L5.33932813,60.6502891 L7.18077344,59.8109141 L6.67741406,58.7059141 C6.53198438,58.3851719 6.29491406,57.8147422 6.07378125,57.610875 C5.91639844,57.4714219 5.62620313,57.3233359 5.06440625,57.5796641 C4.50194531,57.8353281 4.40432813,58.1613828 4.40632031,58.3705625 M7.69675,58.2184922 L8.20874219,59.34275 L10.7872969,58.1673594 L11.3085859,59.3115391 L4.84260938,62.2579844 L3.80932813,59.9895469 C3.15057812,58.5445469 2.65253125,57.2967734 4.52385938,56.4447812 C6.3845625,55.5961094 7.02936719,56.7542344 7.69675,58.2184922" id="Fill-55" fill="#FEFEFE"></path>
                <polygon id="Fill-57" fill="#FEFEFE" points="8.7071875 53.2007695 1.80359375 54.8888164 0.642148438 50.1381133 1.72921875 49.8724883 2.59714844 53.4225664 4.34628906 52.9942461 3.50359375 49.5484258 4.58003906 49.285457 5.42273437 52.7319414 7.31664062 52.2684258 6.44871094 48.7183477 7.54574219 48.4507305"></polygon>
                <path d="M1.48842969,44.6334336 L4.34721875,45.4960508 L4.24960156,43.5065195 L1.48842969,44.6334336 Z M7.09311719,42.321832 L5.31675,43.0702305 L5.45155469,45.8367148 L7.293,46.3978477 L7.35675,47.7067148 L0.12378125,45.3081211 L0.061359375,44.0198398 L7.02604687,40.9485508 L7.09311719,42.321832 Z" id="Fill-59" fill="#FEFEFE"></path>
                <polygon id="Fill-61" fill="#FEFEFE" points="1.49912109 37.2794727 7.44646484 37.9581445 7.30369141 39.2072461 1.35634766 38.5285742 1.11130859 40.6768164 0.00033203125 40.5499805 0.633183594 35.0043945 1.74482422 35.1318945"></polygon>
                <path d="M40.7037773,54.3148672 L36.0872148,61.3320156 C35.5426836,62.1547891 34.6926836,62.7272109 33.7258086,62.9231094 C33.496043,62.9689297 33.2616289,62.9908438 33.028543,62.9921719 C32.3445586,62.9921719 31.6771758,62.7896328 31.1120586,62.4071328 C30.3045586,61.8665859 29.7606914,61.0139297 29.6119414,60.0543594 C29.4598711,59.0974453 29.7055742,58.1192813 30.2926055,57.3483047 L36.641043,49.1145938 L36.6423711,49.1145938 C36.9352227,48.7354141 37.480418,48.6656875 37.8595977,48.9592031 C38.2387773,49.2513906 38.309832,49.7979141 38.0156523,50.1777578 L31.6672148,58.4114688 C31.3690508,58.8026016 31.2475273,59.3026406 31.328543,59.7880703 C31.4115508,60.2741641 31.6911211,60.7038125 32.1008477,60.9760781 C32.4833477,61.2324063 32.9501836,61.3220547 33.400418,61.2284219 C33.9137383,61.1254922 34.3639727,60.8226797 34.6535039,60.3877188 L39.2508086,53.3612734 C39.5170977,52.9708047 40.0483477,52.8672109 40.4428008,53.1268594 C40.8392461,53.3878359 40.9528008,53.9170938 40.6984648,54.3148672 L40.7037773,54.3148672 Z M58.9395977,23.2506875 C57.3226055,22.0972109 55.1252227,22.0108828 52.7585039,23.011625 L52.7585039,23.0136172 C50.3187383,24.12725 48.2289336,25.8863516 46.713543,28.1003359 C44.5214727,31.1782656 43.4935039,34.7011172 43.9709648,37.5267031 C44.0758867,38.1801406 44.0181133,38.8501797 43.8016289,39.4763906 C43.6475664,39.9306094 43.8899492,40.4233438 44.3435039,40.5767422 C44.7970586,40.7314687 45.289793,40.4890859 45.4438555,40.0355312 C45.7533086,39.1377188 45.8349883,38.1781484 45.682918,37.2404922 C45.2878008,34.8910391 46.2241289,31.7765859 48.127332,29.1057266 C49.4528008,27.1560391 51.282293,25.6021328 53.4225664,24.6113516 C55.2168633,23.8583047 56.8112773,23.8749063 57.9202617,24.6671328 C59.0292461,25.4593594 59.5711211,26.9594766 59.442293,28.9005312 L59.442293,28.9025234 C59.2052227,31.2493203 58.3353008,33.4872109 56.924832,35.3764688 C55.0388945,38.0513125 52.3779961,39.9538516 50.0298711,40.3436562 C49.1128008,40.5010391 48.2475273,40.8788906 47.5077617,41.4440078 C47.3045586,41.5980703 47.1133086,41.7660781 46.9300273,41.9433828 C46.6152617,42.2820547 46.6205742,42.8086562 46.9439727,43.1386953 C47.2673711,43.4707266 47.7939727,43.4886563 48.1392852,43.1825234 C48.276082,43.0536953 48.4221758,42.9335 48.5722539,42.8219375 C49.0869023,42.4274844 49.6898711,42.1631875 50.3280352,42.051625 C53.1582695,41.5794766 56.1531914,39.4511563 58.3505742,36.3838516 L58.3505742,36.3825234 C59.9469805,34.2309609 60.9291289,31.6829531 61.1894414,29.01475 C61.3454961,26.4534609 60.547957,24.4035 58.9395977,23.2506875 Z M40.0237773,39.012875 C39.9826055,38.9424844 39.9826055,38.8541641 40.0237773,38.7824453 C40.7901055,37.04725 40.5869023,35.0351406 39.4852227,33.4872109 L31.7455742,22.6882266 C31.6134258,22.4956484 31.4102227,22.3635 31.179793,22.3223281 C30.9500273,22.2824844 30.7142852,22.3362734 30.5243633,22.4717422 C30.3351055,22.6072109 30.2082695,22.8130703 30.1724102,23.0454922 C30.1372148,23.2759219 30.1963164,23.511 30.3370977,23.6976016 L38.0681133,34.4979141 C38.8151836,35.5438125 38.9539727,36.9071328 38.4326836,38.0818594 C38.1345195,38.7352969 38.2188555,39.5002969 38.6544805,40.0747109 L52.9557305,58.5708437 C53.2399492,58.9294375 53.3667852,59.3889687 53.3023711,59.8405312 C53.2399492,60.2940859 52.9942461,60.7024844 52.621707,60.9681094 C52.2511602,61.2337344 51.7856523,61.3373281 51.3374102,61.2503359 C50.8865117,61.1640078 50.4940508,60.8983828 50.2470195,60.5125625 L37.2712383,41.0548672 C36.8701445,40.4538906 36.1708867,40.1205312 35.451043,40.1882656 C34.1713945,40.3064688 32.9236211,39.7393594 32.1705742,38.6961172 L24.4521758,27.9236953 C24.3206914,27.7304531 24.1154961,27.5983047 23.8870586,27.5577969 C23.6566289,27.516625 23.4195586,27.5717422 23.2303008,27.7072109 C23.0403789,27.8440078 22.913543,28.0498672 22.8783477,28.2802969 C22.8438164,28.5107266 22.903582,28.7458047 23.0436992,28.9317422 L30.7707305,39.7274062 C31.8823711,41.2713516 33.729793,42.1113906 35.6236992,41.9334219 C35.7047148,41.9214687 35.7877227,41.9520156 35.8401836,42.0164297 L48.7993633,61.4708047 C49.3073711,62.2431094 50.1082305,62.7710391 51.016668,62.9350625 C51.2218633,62.9729141 51.4297148,62.9928359 51.6362383,62.9928359 C52.9331523,62.9881875 54.1151836,62.24975 54.6836211,61.0849844 C55.2527227,59.9222109 55.1119414,58.5356484 54.3197148,57.5103359 L40.0237773,39.012875 Z M34.484168,36.6820156 C34.8075664,36.6820156 35.1057305,36.5027187 35.2544805,36.2145156 C35.4038945,35.9283047 35.3813164,35.5816641 35.1953789,35.3160391 L28.130418,25.2276016 C27.8568242,24.8351406 27.3162773,24.7388516 26.9238164,25.0131094 C26.5313555,25.2873672 26.4344023,25.82725 26.7086602,26.2197109 L33.772957,36.3094766 C33.9356523,36.5412344 34.1999492,36.6800234 34.484168,36.6820156 L34.484168,36.6820156 Z" id="Fill-63" fill="#FEFEFE"></path>
            </g>
        </g>
    </g>
</svg>
