<?xml version="1.0" encoding="utf-8"?>
<!-- Generator: Adobe Illustrator 19.2.1, SVG Export Plug-In . SVG Version: 6.00 Build 0)  -->
<svg version="1.1" id="Capa_1" xmlns="http://www.w3.org/2000/svg" xmlns:xlink="http://www.w3.org/1999/xlink" x="0px" y="0px"
	 viewBox="0 0 512 512" style="enable-background:new 0 0 512 512;" xml:space="preserve">
<style type="text/css">
	.st0{fill:#FFFFFF;}
</style>
<g id="XMLID_95_">
	<path id="XMLID_98_" class="st0" d="M162.2,319.5c-2.2,0.2-4.3,0.3-6.5,0.3c-6,0-11.7-0.9-17.4-2.2L7.1,448.8
		c-6.4,6.4-6.4,16.9,0,23.3l33.9,34c6.4,6.4,16.9,6.4,23.3,0L222,348.4l-29.2-31.5L162.2,319.5z"/>
	<path id="XMLID_97_" class="st0" d="M507.4,109.4c-6.2-6.2-16.1-6.2-22.3,0l-85,85c-8,8-21.1,8-29.1,0c-8-8-8-21,0-29.1l84.6-84.6
		c6.4-6.4,6.4-16.8,0-23.2c-6.4-6.4-16.8-6.4-23.2,0l-84.5,84.5c-8,8-21.1,8-29.1,0c-8-8-8-21,0-29.1l85-85c6.2-6.2,6.2-16.1,0-22.3
		c-6.2-6.2-16.1-6.2-22.3,0l-95.6,95.6c-23,23-30.2,55.3-22.8,84.7l64.1,64.1c29.4,7.4,61.7,0.2,84.6-22.8l95.6-95.6
		C513.5,125.6,513.5,115.6,507.4,109.4z"/>
	<path id="XMLID_96_" class="st0" d="M43,14.4c-3.3-3.3-7.7-5.1-12.3-5.1c-1,0-1.9,0.1-2.9,0.2c-5.5,0.9-10.3,4.5-12.7,9.5
		C-12.9,77-1.2,146.3,44.2,191.7l81.3,81.3c8,8,18.9,12.5,30.1,12.5c1.2,0,2.4-0.1,3.6-0.1l47.2-4l205.9,222.1
		c3.2,3.5,7.7,5.5,12.4,5.6c0.1,0,0.2,0,0.3,0c4.6,0,9-1.8,12.3-5.1l35.3-35.3c3.3-3.3,5.1-7.7,5.1-12.3c0-4.6-1.8-9-5.1-12.3
		L43,14.4z"/>
</g>
</svg>
