<?xml version="1.0" standalone="no"?>
<!DOCTYPE svg PUBLIC "-//W3C//DTD SVG 20010904//EN"
 "http://www.w3.org/TR/2001/REC-SVG-20010904/DTD/svg10.dtd">
<svg version="1.0" xmlns="http://www.w3.org/2000/svg"
 width="723.000000pt" height="723.000000pt" viewBox="0 0 723.000000 723.000000"
 preserveAspectRatio="xMidYMid meet">
<metadata>
Created by potrace 1.11, written by Peter Selinger 2001-2013
</metadata>
<g transform="translate(0.000000,723.000000) scale(0.100000,-0.100000)"
fill="#000000" stroke="none">
<path d="M1610 7223 c-84 -32 -126 -129 -90 -210 9 -21 23 -45 31 -53 8 -8 34
-44 59 -80 24 -36 50 -72 57 -80 7 -8 66 -91 132 -183 66 -93 127 -178 135
-190 9 -12 64 -89 123 -172 58 -82 109 -152 112 -155 3 -3 11 -12 16 -21 23
-37 66 -100 80 -117 41 -50 85 -113 85 -121 0 -5 4 -11 8 -13 4 -1 27 -30 50
-63 23 -33 49 -69 57 -80 8 -11 70 -99 139 -195 69 -96 132 -184 140 -195 193
-268 208 -291 240 -378 31 -80 39 -127 39 -227 1 -92 -5 -128 -38 -222 -39
-109 -43 -132 -40 -203 5 -114 -11 -90 520 -775 87 -113 175 -226 194 -251 20
-25 46 -59 58 -75 12 -16 67 -87 123 -159 129 -166 125 -162 217 -280 43 -55
114 -147 158 -205 44 -58 82 -107 85 -110 4 -3 19 -23 36 -45 16 -22 34 -45
39 -52 6 -6 20 -24 32 -40 46 -60 314 -409 326 -423 7 -8 48 -62 92 -118 44
-57 107 -139 140 -181 33 -43 69 -90 80 -105 11 -15 28 -37 38 -49 10 -12 27
-33 38 -47 108 -140 234 -304 327 -424 62 -81 120 -161 129 -179 9 -17 20 -40
25 -50 9 -19 12 -117 4 -153 -38 -178 -243 -279 -406 -201 -30 14 -65 34 -77
45 -25 22 -143 188 -143 202 0 4 -3 10 -7 12 -11 4 -73 97 -73 107 0 5 -3 11
-7 13 -11 4 -153 217 -153 228 0 4 -3 10 -7 12 -11 4 -73 97 -73 107 0 5 -3
11 -7 13 -11 4 -73 97 -73 107 0 5 -3 11 -7 13 -11 4 -153 217 -153 228 0 4
-3 10 -7 12 -8 3 -305 444 -312 463 -2 5 -7 12 -10 15 -8 6 -145 211 -150 225
-2 6 -7 12 -10 15 -4 3 -267 397 -586 875 -319 479 -599 891 -622 916 -27 29
-67 57 -106 75 -57 25 -73 28 -197 30 -193 4 -291 34 -420 128 -87 64 -75 49
-399 501 -138 193 -257 359 -265 370 -34 46 -412 574 -444 620 -20 28 -54 75
-76 107 -23 31 -48 66 -56 78 -21 30 -87 121 -106 145 -8 11 -23 32 -32 48 -9
15 -20 27 -24 27 -4 0 -8 4 -8 10 0 5 -16 31 -35 57 -100 136 -130 158 -199
150 -73 -8 -105 -31 -132 -94 -19 -44 -17 -86 5 -125 16 -30 115 -172 144
-208 7 -8 50 -69 97 -135 46 -66 88 -124 93 -130 34 -43 177 -248 177 -255 0
-4 4 -10 8 -12 4 -1 33 -39 64 -83 32 -44 61 -84 65 -90 5 -5 24 -32 43 -60
19 -27 39 -54 43 -60 4 -5 42 -57 83 -115 41 -58 81 -113 89 -123 8 -9 15 -20
15 -23 0 -2 5 -10 11 -17 5 -7 50 -68 99 -137 49 -69 93 -129 97 -135 5 -5 31
-41 58 -80 27 -38 55 -76 61 -83 7 -6 16 -21 19 -32 3 -11 10 -20 14 -20 3 0
15 -14 25 -32 11 -17 25 -39 32 -47 7 -9 33 -44 58 -77 131 -176 370 -329 562
-360 20 -3 46 -8 58 -11 11 -3 74 -6 139 -7 65 -2 121 -7 126 -12 10 -10 473
-703 481 -719 7 -13 324 -489 330 -495 3 -3 39 -57 80 -120 41 -63 77 -117 80
-120 3 -3 39 -57 80 -120 41 -63 79 -119 83 -125 5 -5 80 -118 167 -250 87
-132 163 -245 168 -250 5 -6 11 -15 13 -20 9 -21 564 -850 571 -853 5 -2 8 -8
8 -13 0 -5 16 -32 35 -59 19 -27 35 -54 35 -60 0 -5 4 -10 8 -10 5 0 15 -12
23 -27 8 -16 16 -30 19 -33 3 -3 41 -58 85 -124 85 -127 153 -196 239 -245
104 -60 171 -76 306 -75 114 0 179 14 246 51 12 7 24 9 28 6 3 -3 6 -1 6 5 0
7 5 12 10 12 30 0 190 143 190 170 0 5 4 10 8 10 14 0 74 132 92 200 23 92 19
240 -9 313 -6 15 -8 27 -6 27 8 0 -57 125 -66 128 -5 2 -9 8 -9 13 0 5 -109
151 -242 323 -134 172 -254 328 -268 346 -14 19 -43 56 -65 84 -23 28 -117
150 -210 271 -93 121 -173 225 -177 230 -5 6 -31 39 -59 75 -27 36 -55 72 -62
80 -7 9 -32 42 -57 75 -25 33 -47 62 -50 65 -3 3 -28 34 -55 70 -27 36 -52 67
-55 70 -3 3 -23 30 -45 60 -22 30 -44 60 -50 66 -11 12 -33 40 -101 129 -25
33 -50 67 -57 75 -7 8 -28 35 -47 60 -19 25 -40 52 -47 60 -54 69 -136 175
-173 225 -25 33 -49 65 -55 72 -21 26 -33 41 -100 128 -37 50 -85 110 -104
135 -50 63 -55 68 -105 135 -61 79 -70 92 -165 215 -127 164 -172 221 -181
230 -3 3 -11 16 -18 28 -12 21 -10 33 12 95 22 64 36 115 53 197 20 100 3 306
-36 425 -51 157 -58 169 -435 693 -171 238 -315 441 -321 450 -5 9 -13 19 -16
22 -3 3 -39 52 -80 110 -40 58 -77 107 -81 108 -5 2 -8 8 -8 12 0 5 -28 47
-62 94 -92 125 -172 235 -183 254 -5 9 -13 19 -16 22 -3 3 -27 37 -54 75 -27
39 -52 72 -55 75 -3 3 -25 34 -49 70 -25 36 -47 67 -50 70 -4 3 -26 34 -50 70
-25 36 -58 77 -73 91 -37 34 -104 48 -148 32z"/>
<path d="M5948 7225 c-3 -3 -41 -10 -103 -20 -11 -1 -36 -6 -55 -10 -19 -4
-39 -8 -45 -9 -5 -1 -14 -4 -20 -7 -5 -4 -23 -9 -40 -13 -157 -36 -468 -207
-692 -381 -119 -92 -306 -270 -378 -360 -22 -28 -43 -52 -46 -55 -35 -30 -201
-272 -283 -412 -61 -104 -176 -340 -176 -361 0 -7 -4 -17 -9 -22 -7 -8 -70
-186 -77 -217 -1 -5 -2 -9 -4 -10 -1 -2 -3 -10 -5 -18 -1 -8 -7 -33 -13 -55
-23 -84 -51 -243 -59 -334 -12 -128 -6 -293 13 -426 14 -89 6 -195 -24 -315
-25 -102 -8 -154 68 -201 31 -20 106 -21 142 -3 33 17 73 69 83 109 5 17 9 35
11 40 9 30 16 63 19 90 3 17 7 41 10 55 7 33 9 236 2 247 -10 15 -20 146 -20
243 0 114 6 179 27 300 11 56 53 221 65 252 5 13 26 68 47 123 77 203 209 437
367 649 95 127 312 352 411 427 195 146 408 273 521 309 22 7 46 17 53 23 6 5
12 7 12 4 0 -3 21 2 48 10 94 29 146 36 267 36 149 0 219 -16 325 -76 59 -34
180 -149 180 -173 0 -8 4 -14 9 -14 8 0 69 -127 77 -160 2 -8 10 -40 18 -70
59 -213 26 -548 -86 -874 -51 -150 -142 -345 -217 -464 -50 -79 -209 -304
-222 -312 -4 -3 -22 -23 -39 -45 -82 -104 -250 -264 -384 -366 -50 -38 -95
-73 -101 -77 -40 -30 -242 -142 -257 -142 -6 0 -19 -7 -28 -15 -9 -8 -25 -16
-36 -18 -10 -2 -32 -9 -49 -16 -16 -6 -37 -14 -45 -17 -25 -10 -165 -44 -249
-60 -72 -14 -272 -99 -314 -134 -6 -5 -46 -36 -87 -68 -88 -69 -110 -98 -116
-158 -14 -127 124 -210 235 -140 22 14 48 34 58 44 84 87 254 154 518 206 17
4 83 28 179 65 135 53 333 172 501 300 101 77 328 295 402 386 23 28 56 68 75
91 18 22 42 53 53 69 11 15 28 36 38 47 9 10 15 18 12 18 -3 0 -1 6 5 13 19
22 100 137 100 142 0 2 18 34 40 70 78 127 170 326 220 475 27 81 67 218 75
254 10 48 15 76 19 101 3 14 7 33 11 44 3 10 7 38 10 62 2 24 7 67 11 94 20
133 5 370 -32 505 -8 30 -16 62 -19 71 -8 36 -60 156 -87 202 -15 26 -28 52
-28 57 0 6 -3 10 -7 10 -5 0 -19 17 -33 37 -36 53 -143 156 -207 199 -94 62
-218 112 -348 139 -30 7 -292 15 -297 10z"/>
<path d="M964 6766 c-85 -38 -121 -121 -85 -200 10 -23 71 -115 134 -206 64
-91 121 -172 127 -180 6 -8 33 -46 60 -85 27 -38 54 -77 60 -85 6 -8 58 -82
115 -165 58 -82 110 -157 115 -165 20 -28 200 -285 214 -305 8 -11 71 -101
140 -200 69 -99 129 -184 133 -190 5 -5 44 -61 87 -123 92 -134 110 -154 154
-171 40 -17 106 -9 141 16 40 29 70 96 64 140 -6 44 -26 80 -126 220 -85 121
-104 148 -219 313 -48 69 -91 130 -96 135 -4 6 -31 44 -59 85 -29 41 -79 113
-113 160 -33 47 -63 91 -67 99 -4 8 -14 22 -22 32 -9 9 -52 69 -96 133 -44 65
-105 152 -135 195 -30 42 -59 84 -65 93 -25 40 -279 398 -293 413 -17 18 -48
40 -63 44 -41 10 -77 9 -105 -3z"/>
<path d="M2778 2535 c-2 -2 -16 -6 -30 -9 -42 -7 -80 -33 -110 -74 -38 -53
-61 -82 -79 -102 -9 -10 -18 -22 -20 -27 -2 -6 -18 -28 -36 -49 -33 -40 -210
-270 -241 -312 -9 -14 -22 -29 -28 -36 -9 -9 -49 -61 -142 -184 -9 -13 -24
-31 -32 -41 -8 -9 -49 -62 -90 -116 -41 -55 -77 -102 -81 -105 -3 -3 -18 -23
-35 -45 -16 -22 -35 -46 -41 -55 -7 -8 -63 -80 -124 -160 -61 -80 -123 -160
-137 -178 -51 -62 -99 -151 -123 -224 -20 -60 -24 -94 -24 -188 0 -134 21
-216 82 -319 51 -85 177 -211 212 -211 5 0 11 -3 13 -7 10 -23 155 -72 229
-78 30 -2 64 -7 76 -9 13 -3 25 -1 28 3 2 5 16 7 29 6 35 -4 151 27 211 57
129 63 210 138 306 285 35 54 69 104 76 111 6 6 15 21 18 32 3 11 11 20 16 20
5 0 9 4 9 10 0 8 95 156 160 250 6 8 58 87 115 175 58 88 109 167 115 175 119
178 180 272 180 280 0 6 4 10 8 10 4 0 24 27 43 60 18 33 37 60 40 60 4 0 12
19 18 43 39 137 -93 247 -219 182 -35 -18 -42 -29 -310 -440 -46 -71 -88 -131
-92 -133 -4 -2 -8 -9 -8 -16 0 -6 -7 -21 -15 -31 -9 -11 -53 -76 -97 -145 -45
-69 -122 -185 -170 -259 -48 -73 -88 -137 -88 -141 0 -5 -3 -10 -8 -12 -4 -2
-27 -34 -52 -72 -58 -90 -102 -133 -168 -163 -132 -62 -270 -39 -364 59 -62
64 -82 119 -83 218 0 99 16 141 93 239 26 33 57 72 68 88 12 15 65 84 118 153
53 69 105 136 116 150 11 14 26 34 35 45 78 101 215 279 235 305 14 18 96 126
183 239 88 113 169 219 180 234 12 16 27 34 32 40 16 17 130 170 139 185 29
49 16 128 -28 173 -28 30 -98 64 -108 54z"/>
</g>
</svg>
