<?xml version="1.0" encoding="UTF-8"?>
<svg width="39px" height="41px" viewBox="0 0 39 41" version="1.1" xmlns="http://www.w3.org/2000/svg" xmlns:xlink="http://www.w3.org/1999/xlink">
    <!-- Generator: Sketch 43.2 (39069) - http://www.bohemiancoding.com/sketch -->
    <title>Fill 63</title>
    <desc>Created with Sketch.</desc>
    <defs></defs>
    <g id="Page-1" stroke="none" stroke-width="1" fill="none" fill-rule="evenodd">
        <g id="Loading" transform="translate(-168.000000, -313.000000)" fill="#FAAE17">
            <path d="M185.835001,345.005373 L181.218439,352.022521 C180.673907,352.845295 179.823907,353.417716 178.857032,353.613615 C178.627267,353.659435 178.392853,353.681349 178.159767,353.682677 C177.475782,353.682677 176.808399,353.480138 176.243282,353.097638 C175.435782,352.557091 174.891915,351.704435 174.743165,350.744865 C174.591095,349.787951 174.836798,348.809787 175.423829,348.03881 L181.772267,339.805099 L181.773595,339.805099 C182.066446,339.42592 182.611642,339.356193 182.990821,339.649709 C183.370001,339.941896 183.441056,340.48842 183.146876,340.868263 L176.798439,349.101974 C176.500274,349.493107 176.378751,349.993146 176.459767,350.478576 C176.542774,350.96467 176.822345,351.394318 177.232071,351.666584 C177.614571,351.922912 178.081407,352.01256 178.531642,351.918927 C179.044962,351.815998 179.495196,351.513185 179.784728,351.078224 L184.382032,344.051779 C184.648321,343.66131 185.179571,343.557716 185.574024,343.817365 C185.97047,344.078341 186.084024,344.607599 185.829689,345.005373 L185.835001,345.005373 Z M204.070821,313.941193 C202.453829,312.787716 200.256446,312.701388 197.889728,313.702131 L197.889728,313.704123 C195.449962,314.817756 193.360157,316.576857 191.844767,318.790841 C189.652696,321.868771 188.624728,325.391623 189.102189,328.217209 C189.20711,328.870646 189.149337,329.540685 188.932853,330.166896 C188.77879,330.621115 189.021173,331.113849 189.474728,331.267248 C189.928282,331.421974 190.421017,331.179591 190.575079,330.726037 C190.884532,329.828224 190.966212,328.868654 190.814142,327.930998 C190.419024,325.581545 191.355353,322.467091 193.258556,319.796232 C194.584024,317.846545 196.413517,316.292638 198.55379,315.301857 C200.348087,314.54881 201.942501,314.565412 203.051485,315.357638 C204.16047,316.149865 204.702345,317.649982 204.573517,319.591037 L204.573517,319.593029 C204.336446,321.939826 203.466524,324.177716 202.056056,326.066974 C200.170118,328.741818 197.50922,330.644357 195.161095,331.034162 C194.244024,331.191545 193.378751,331.569396 192.638985,332.134513 C192.435782,332.288576 192.244532,332.456584 192.061251,332.633888 C191.746485,332.97256 191.751798,333.499162 192.075196,333.829201 C192.398595,334.161232 192.925196,334.179162 193.270509,333.873029 C193.407306,333.744201 193.553399,333.624006 193.703478,333.512443 C194.218126,333.11799 194.821095,332.853693 195.459259,332.742131 C198.289493,332.269982 201.284415,330.141662 203.481798,327.074357 L203.481798,327.073029 C205.078204,324.921466 206.060353,322.373459 206.320665,319.705256 C206.47672,317.143966 205.679181,315.094006 204.070821,313.941193 Z M185.155001,329.703381 C185.113829,329.63299 185.113829,329.54467 185.155001,329.472951 C185.921329,327.737756 185.718126,325.725646 184.616446,324.177716 L176.876798,313.378732 C176.744649,313.186154 176.541446,313.054006 176.311017,313.012834 C176.081251,312.97299 175.845509,313.026779 175.655587,313.162248 C175.466329,313.297716 175.339493,313.503576 175.303634,313.735998 C175.268439,313.966427 175.32754,314.201506 175.468321,314.388107 L183.199337,325.18842 C183.946407,326.234318 184.085196,327.597638 183.563907,328.772365 C183.265743,329.425802 183.350079,330.190802 183.785704,330.765216 L198.086954,349.261349 C198.371173,349.619943 198.498009,350.079474 198.433595,350.531037 C198.371173,350.984591 198.12547,351.39299 197.752931,351.658615 C197.382384,351.92424 196.916876,352.027834 196.468634,351.940841 C196.017735,351.854513 195.625274,351.588888 195.378243,351.203068 L182.402462,331.745373 C182.001368,331.144396 181.30211,330.811037 180.582267,330.878771 C179.302618,330.996974 178.054845,330.429865 177.301798,329.386623 L169.583399,318.614201 C169.451915,318.420959 169.24672,318.28881 169.018282,318.248302 C168.787853,318.207131 168.550782,318.262248 168.361524,318.397716 C168.171603,318.534513 168.044767,318.740373 168.009571,318.970802 C167.97504,319.201232 168.034806,319.43631 168.174923,319.622248 L175.901954,330.417912 C177.013595,331.961857 178.861017,332.801896 180.754923,332.623927 C180.835939,332.611974 180.918946,332.642521 180.971407,332.706935 L193.930587,352.16131 C194.438595,352.933615 195.239454,353.461545 196.147892,353.625568 C196.353087,353.66342 196.560939,353.683341 196.767462,353.683341 C198.064376,353.678693 199.246407,352.940256 199.814845,351.77549 C200.383946,350.612716 200.243165,349.226154 199.450939,348.200841 L185.155001,329.703381 Z M179.615392,327.372521 C179.93879,327.372521 180.236954,327.193224 180.385704,326.905021 C180.535118,326.61881 180.51254,326.27217 180.326603,326.006545 L173.261642,315.918107 C172.988048,315.525646 172.447501,315.429357 172.05504,315.703615 C171.662579,315.977873 171.565626,316.517756 171.839884,316.910216 L178.904181,326.999982 C179.066876,327.23174 179.331173,327.370529 179.615392,327.372521 L179.615392,327.372521 Z" id="Fill-63"></path>
        </g>
    </g>
</svg>